<?xml version="1.0" encoding="UTF-8"?>
<svg id="Layer_1" data-name="Layer 1" xmlns="http://www.w3.org/2000/svg" viewBox="0 0 411 317">
  <defs>
    <style>
      .cls-1, .cls-2, .cls-3, .cls-4, .cls-5, .cls-6, .cls-7, .cls-8, .cls-9, .cls-10, .cls-11, .cls-12 {
        stroke-width: 0px;
      }

      .cls-1, .cls-13 {
        fill: #9ed1dd;
      }

      .cls-2, .cls-14, .cls-15 {
        fill: #122d5f;
      }

      .cls-3 {
        fill: #005abc;
      }

      .cls-4 {
        fill: #f4f4f4;
      }

      .cls-5 {
        fill: #e9e9f4;
      }

      .cls-6, .cls-16 {
        fill: #33d9ff;
      }

      .cls-7 {
        fill: #87bcc4;
      }

      .cls-8 {
        fill: #0c254c;
      }

      .cls-9 {
        fill: #00b8ff;
      }

      .cls-13, .cls-17, .cls-14, .cls-16, .cls-15 {
        stroke: #005abc;
      }

      .cls-13, .cls-15 {
        stroke-linecap: round;
        stroke-linejoin: round;
      }

      .cls-17, .cls-14, .cls-16 {
        stroke-miterlimit: 10;
      }

      .cls-17, .cls-10, .cls-12 {
        fill: #fff;
      }

      .cls-11 {
        fill: #6426e5;
      }

      .cls-12 {
        isolation: isolate;
        opacity: .21;
      }
    </style>
  </defs>
  <path class="cls-9" d="M143.3,114.68c-2.77,0-2.81-3.15-2.81-4.24-.86-4.76-.73-11.82-.65-19.28l.04-11.33c-.33-17.51,9.41-30.17,17.68-37.75,10.55-9.64,22.82-14.72,30.32-15.45,1.06-.12,2.16-.16,3.22-.16,9.41,0,17.64,4.16,24.45,12.3,7.05,8.43,10.15,18.27,11.12,22.1,2.65,10.16,4.77,18.23,2.45,21.38-.65.89-1.67,1.37-2.97,1.45-32.72,1.73-56.07,16.05-70.04,24.65-6.19,3.79-10.27,6.33-12.79,6.33Z"/>
  <path class="cls-3" d="M191.06,26.86c20.86,0,31.82,21.05,35.2,34.12,3.34,12.87,5.74,21.98-.16,22.31-46.98,2.46-74.85,30.98-82.84,30.98-1.59,0-2.4-1.13-2.4-3.87-1.26-7.18-.41-19.76-.61-30.57-.57-31.02,31.58-51.23,47.63-52.8,1.1-.12,2.16-.16,3.18-.16ZM191.06,26.06c-1.06,0-2.16.04-3.26.16-7.54.73-19.93,5.85-30.52,15.57-5.46,5-9.78,10.57-12.79,16.54-3.46,6.86-5.17,14.08-5.01,21.5.08,3.67,0,7.54-.04,11.29-.12,7.46-.2,14.52.65,19.32,0,3.07,1.1,4.6,3.22,4.6,2.65,0,6.76-2.54,13.04-6.37,13.93-8.55,37.2-22.87,69.84-24.61,1.43-.08,2.53-.61,3.26-1.61,2.45-3.31.41-11.01-2.36-21.7-1.02-3.87-4.12-13.8-11.21-22.26-3.18-3.79-6.72-6.78-10.55-8.87-4.44-2.34-9.21-3.55-14.26-3.55h0Z"/>
  <path class="cls-13" d="M179.53,104.91s1.67,13.47-.53,17.02c-2.04,3.31-12.71,6.01-12.71,6.01,0,0,23.31,37.63,28.64,37.84,5.87.2,20.29-42.27,20.29-42.27,0,0-8.48.85-10.27-.97-3.71-3.71-1.63-20.81-1.63-20.81l-23.79,3.19h0Z"/>
  <path class="cls-3" d="M195.09,166.18h-.12c-5.42-.2-26.61-34.16-28.97-38.04l-.29-.48.53-.12c.12-.04,10.55-2.66,12.47-5.81,2.08-3.43.49-16.66.49-16.78l-.04-.4,24.69-3.31-.08.53c0,.16-2,16.94,1.51,20.49,1.38,1.37,7.66,1.09,9.94.85l.61-.08-.2.61c-2.46,7.14-5.11,14.22-7.95,21.22-8.39,20.53-11.49,21.34-12.59,21.34h0ZM166.93,128.19c6.68,10.73,23.88,37.03,28.03,37.19h.04c4.07,0,13.89-24.48,19.64-41.38-2.12.16-8.31.52-9.98-1.17-3.46-3.51-2.12-17.67-1.79-20.65l-22.86,3.07c.24,2.3,1.43,13.55-.65,16.9-1.83,3.03-10.19,5.45-12.43,6.05h0Z"/>
  <path class="cls-7" d="M180.91,114.8s6.44,8.87,11.21,8.43c8.15-.77,9.82-11.37,9.74-12.54s-5.17,1.53-5.17,1.53c0,0-6.44,3.47-8.27,3.35-3.87-.2-5.3-2.5-5.3-2.5l-2.2-.81v2.54h0Z"/>
  <path class="cls-2" d="M304.21,68.93s.61,6.94-1.63,7.02c-2.2-.08-2.69-1.05-2.69-1.05,0,0,1.1-4.92,4.32-5.97Z"/>
  <path class="cls-3" d="M302.58,76.36c-2.4-.08-3.02-1.17-3.1-1.29l-.08-.12.04-.16c.04-.2,1.22-5.16,4.6-6.25l.49-.16.04.52c.04.57.45,5.4-.98,6.94-.24.36-.61.52-1.02.52ZM300.29,74.82c.2.2.82.69,2.28.73.16,0,.33-.08.45-.24.86-.97.9-4.11.77-5.77-2.24,1.13-3.3,4.48-3.5,5.28Z"/>
  <path class="cls-2" d="M282.81,98.22s-1.71-3.67-.16-7.79l.77,1.17,2.28,3.75s-3.38.81-2.89,2.86Z"/>
  <path class="cls-3" d="M282.45,98.42c-.08-.16-1.75-3.87-.2-8.11l.29-.73.45.64.77,1.21,2.28,3.79.29.48-.53.12s-1.79.44-2.4,1.41c-.2.28-.24.61-.16.97l-.77.2h0ZM282.77,91.36c-.57,2.1-.33,4.03-.04,5.28.57-.81,1.67-1.29,2.36-1.53l-2.04-3.31c-.12-.12-.2-.28-.29-.44h0Z"/>
  <path class="cls-13" d="M313.54,96.93c-1.67-2.42-4.08-1.05-4.08-1.05,0,0,1.35-2.62,1.02-4.8-.61-3.91-4.16-3.27-4.16-3.27,0,0,.69-1.21-1.3-3.07-.86-.77-3.1-1.01-3.1-1.01,0,0,1.02-1.45,2.36-6.57,1.02-3.87-.9-5.2-2.69-5.2-2.81-.04-4.2,4.4-4.4,6.65-.16,2.26-2.93,10.04-3.55,13.19s-1.18,7.46-3.79,11.33c-.65.61-.45.32-.45.32-1.39-.08-2.81-1.69-2.57-4.11s-.65-5.36-3.1-5.49-2.57,6.37-2,7.82c1.55,3.87,1.02,6.7,1.55,8.67,1.3,4.96,5.99,9,5.34,10.81-2.61,7.26-17.68,34.69-19.35,37.55-1.96-2.02-6.8-5.57-16.54-11.62-15.4-9.52-18.33-17.79-24.49-20.21-2.49-2.18-10.59-4.03-15.73-1.01-.98.08,3.75,9.2,2.81,9.28-5.7.36,2.24,10.97,2.08,11.54-1.18,3.75,7.21.85,8.19,1.61,11.53,8.75,33.57,26.3,46.25,29.16,5.42,1.21,8.31,3.15,12.96-4.76,3.38-5.81,16.99-49.77,16.99-49.77,1.59-.12,6.36-3.67,9.94-16.14,5.34-7.99,2.36-9.03,1.79-9.88h0Z"/>
  <g>
    <path class="cls-3" d="M277.52,178.97c-1.26,0-2.61-.32-4.11-.73l-1.75-.44c-11.65-2.62-31.37-17.75-43.19-26.74l-3.22-2.46c-.24-.16-1.55.04-2.53.16-2.2.28-4.68.65-5.62-.44-.37-.4-.45-.97-.24-1.65-.08-.24-.45-.85-.82-1.45-1.55-2.66-4.2-7.14-3.01-9.28.37-.65.98-1.05,1.91-1.13-.08-.69-.9-2.62-1.47-4.07-1.38-3.43-1.75-4.48-1.47-4.96.08-.12.16-.2.29-.24,5.42-3.19,13.57-1.13,16.14,1.01,2.77,1.09,4.81,3.27,7.66,6.25,3.46,3.63,8.23,8.63,16.87,13.96,8.31,5.16,13.81,8.96,16.26,11.29,2.73-4.76,16.62-30.25,19.07-37.03.24-.69-.73-2.18-1.79-3.71-1.26-1.9-2.85-4.24-3.55-6.82-.2-.73-.24-1.53-.29-2.46-.12-1.65-.24-3.71-1.22-6.13-.53-1.33-.53-5.73.77-7.54.53-.77,1.18-.89,1.59-.85.9.04,1.63.4,2.24,1.09,1.14,1.29,1.39,3.35,1.26,4.84-.12,1.13.2,2.22.82,2.9.37.44.82.69,1.3.77.04-.04.12-.08.16-.16,2.24-3.35,2.93-7.06,3.5-10,.08-.4.12-.77.2-1.13.29-1.41.98-3.71,1.67-6.09.86-2.86,1.75-5.81,1.83-7.02.16-2.22,1.63-7.02,4.77-7.02h.04c1.1,0,2.08.44,2.65,1.21.82,1.01.94,2.54.45,4.48-.94,3.51-1.71,5.32-2.12,6.13.77.12,2.04.44,2.73,1.05,1.39,1.25,1.59,2.26,1.55,2.9.57,0,1.55.08,2.4.69.9.61,1.43,1.61,1.63,2.94.24,1.49-.29,3.15-.65,4.15,1.1-.24,2.57-.08,3.67,1.53.04.08.16.16.24.28.98.97,2.81,2.74-2.12,9.92-3.54,12.38-8.15,15.89-9.98,16.34-1.18,3.83-13.69,44.01-16.95,49.61-2.85,4.76-5.09,6.05-7.58,6.05h0ZM224.79,147.75c.45,0,.73.08.94.2l3.22,2.46c11.74,8.99,31.37,24,42.86,26.62.61.12,1.22.28,1.79.44,4.24,1.09,6.8,1.73,10.72-5,3.34-5.69,16.83-49.25,16.95-49.69l.08-.28.29-.04c1.1-.08,5.91-3.03,9.58-15.85v-.08l.04-.04c4.61-6.66,3.02-8.23,2.28-8.96-.12-.12-.24-.24-.37-.4-1.43-2.06-3.46-.97-3.54-.89l-1.18.69.61-1.21s1.3-2.5.98-4.56c-.16-1.13-.61-1.94-1.3-2.42-1.06-.73-2.36-.52-2.36-.48l-.86.16.45-.77s.49-.97-1.26-2.54c-.61-.57-2.28-.85-2.85-.93l-.69-.08.41-.57s1.02-1.49,2.28-6.41c.45-1.69.33-2.99-.29-3.79-.61-.77-1.51-.89-2.04-.89-2.45,0-3.79,4.07-3.95,6.25-.08,1.29-.98,4.15-1.87,7.18-.69,2.3-1.39,4.64-1.67,6.01-.08.36-.12.73-.2,1.13-.57,3.07-1.26,6.86-3.67,10.37l-.04.08c-.45.4-.69.64-1.02.4-.61-.12-1.18-.44-1.67-1.01-.77-.89-1.14-2.14-1.02-3.51.16-1.65-.24-3.35-1.06-4.24-.45-.52-1.02-.81-1.67-.81-.33,0-.65.16-.9.52-1.14,1.57-1.1,5.73-.69,6.74,1.06,2.58,1.18,4.68,1.26,6.37.04.89.12,1.65.29,2.3.65,2.46,2.2,4.76,3.42,6.57,1.3,1.98,2.28,3.39,1.88,4.44-2.69,7.5-18.01,35.25-19.39,37.59l-.2.48-.37-.4c-2.2-2.26-7.74-6.17-16.5-11.54-8.72-5.36-13.49-10.41-17.03-14.12-2.77-2.95-4.81-5.04-7.42-6.05l-.08-.04-.04-.04c-2.4-2.1-10.23-3.87-15.2-1.01.04.61.9,2.74,1.51,4.24,1.43,3.43,1.75,4.44,1.47,4.92-.08.16-.24.24-.41.24-.77.04-1.26.28-1.51.73-.94,1.77,1.71,6.33,3.01,8.51.86,1.45,1.02,1.73.9,2.02-.2.69,0,.93.04,1.01.61.73,3.1.4,4.89.16.98-.12,1.71-.2,2.2-.2h0Z"/>
    <path class="cls-3" d="M305.92,105.16c-1.1,0-2.08-.48-2.65-1.29-.73-1.13-.49-2.62.65-4.11,1.3-1.69,5.13-4.11,5.3-4.19.2-.12.45-.08.57.12s.08.44-.12.57c-.04.04-3.87,2.42-5.09,3.99-.94,1.21-1.14,2.38-.61,3.19.49.77,1.55,1.09,2.65.85,2.24-.52,4.77-2.86,5.01-3.19.08-.16.29-.24.49-.2.21.07.32.3.25.51,0,0,0,.01,0,.02-.12.4-2.98,3.07-5.58,3.67l-.86.08Z"/>
  </g>
  <path class="cls-2" d="M308.24,100.36c-.29-.57-1.75-2.38-3.14-.81s-2.53,3.43-1.92,5.24c1.47-.32,2.61-.81,3.79-1.82,1.35-1.09,1.83-1.61,1.26-2.62Z"/>
  <path class="cls-3" d="M302.94,105.24l-.12-.32c-.61-1.69.04-3.51,2-5.65.65-.69,1.26-.77,1.71-.73,1.1.12,1.87,1.25,2.08,1.65.69,1.33-.04,2.06-1.3,3.11-1.35,1.13-2.57,1.57-3.99,1.9,0,0-.37.04-.37.04ZM306.32,99.31c-.29,0-.61.16-.9.48-1.55,1.73-2.2,3.23-1.92,4.52,1.2-.28,2.31-.83,3.26-1.61,1.35-1.09,1.51-1.41,1.14-2.14-.16-.36-.82-1.13-1.47-1.21q-.08-.04-.12-.04h0ZM297.6,98.86h-.2c-.53-.04-.94-.2-1.18-.52-.82-1.01-1.1-2.06-.94-3.07.37-1.94,2.36-3.47,5.3-5.24,2.89-1.73,5.46-2.54,5.58-2.58.2-.08.45.04.53.24s-.04.44-.24.52c-.04,0-2.61.85-5.38,2.5-2.36,1.41-4.6,2.99-4.93,4.68-.16.77.12,1.57.77,2.42.08.12.24.16.49.2,2.32.24,8.96-3.47,9.37-3.83.17-.13.42-.11.57.04.16.16.12.4,0,.57-.37.36-6.8,4.07-9.74,4.07Z"/>
  <path class="cls-2" d="M300.21,96.64l-5.54,2.26c.08-2.66,3.02-7.26,4.89-5.85,1.35,1.01,1.35,2.86.65,3.59h0Z"/>
  <g>
    <path class="cls-3" d="M294.22,99.51l.04-.61c.08-2.06,1.79-5.44,3.67-6.29.69-.32,1.34-.28,1.87.12.73.57,1.22,1.41,1.26,2.34.04.77-.16,1.45-.57,1.9l-.04.08-.08.04-5.54,2.26-.61.16h0ZM298.79,93.18c-.18,0-.36.05-.53.12-1.26.61-2.77,3.07-3.14,4.96l4.85-1.94c.2-.28.33-.73.29-1.21-.04-.69-.41-1.33-.98-1.78-.12-.08-.29-.16-.49-.16Z"/>
    <path class="cls-3" d="M295.04,93.22c-.41,0-.77-.04-1.14-.16-.69-.24-1.22-.77-1.47-1.49-1.14-3.07,1.71-4.92,5.01-6.74,2.65-1.45,4.69-1.37,4.77-1.37.24,0,.41.2.41.4,0,.24-.2.4-.41.4,0,0-1.88-.08-4.32,1.29-3.67,2.02-5.5,3.51-4.64,5.73.2.52.53.85.98,1.01,1.67.61,4.48-.97,4.52-.97.2-.12.45-.04.57.16s.04.44-.16.57c-.16,0-2.24,1.17-4.12,1.17Z"/>
  </g>
  <path class="cls-2" d="M297.07,89.99s-3.1,2.34-5.5,3.39c-.04-1.09.33-2.66,1.88-4.64,1.95-2.42,3.63,1.25,3.63,1.25h0Z"/>
  <path class="cls-3" d="M291.21,93.98v-.61c-.04-1.57.65-3.23,2-4.92.57-.73,1.22-1.05,1.88-.97,1.43.16,2.32,2.1,2.44,2.3l.12.28-.24.2c-.12.08-3.18,2.38-5.58,3.43l-.61.28h0ZM294.83,88.3c-.33,0-.69.2-1.06.64-1.02,1.29-1.63,2.54-1.75,3.75,1.79-.89,3.83-2.3,4.52-2.82-.33-.57-.94-1.49-1.63-1.57,0,.04-.04,0-.08,0h0ZM289.41,103.46c.65-.04,1.3.16,1.87.4.61.24,1.14.61,1.63,1.05s.94.93,1.26,1.45c.2.24.33.56.49.81.13.29.24.58.33.89-.24-.2-.45-.44-.69-.69-.24-.2-.41-.44-.65-.64-.41-.44-.86-.85-1.3-1.21l-1.43-1.09c-.45-.36-.94-.69-1.51-.97h0ZM298.34,118.27c.12.89.24,1.65.49,2.38l.41,1.09.57,1.13c-.86-.28-1.51-1.09-1.79-1.94-.12-.43-.16-.88-.12-1.33.08-.52.2-.97.45-1.33h0ZM291.09,119.56l1.35-.28c.2-.04.41-.16.65-.2.21-.08.42-.17.61-.28.77-.4,1.43-.97,1.87-1.65l.33-.56c.12-.16.16-.4.24-.61.2-.4.2-.85.37-1.25.04-.2.04-.44.08-.64s.08-.44.08-.69l.08-1.37.33,1.37c.04.48.08.93.04,1.41-.08.97-.33,1.9-.86,2.74l-.45.57c-.16.2-.37.32-.53.52-.41.28-.82.57-1.3.73-.24.08-.45.16-.69.2s-.49.08-.73.08c-.53.04-1.02,0-1.47-.08h0ZM287.09,100.15c.12.36.08.77-.08,1.13s-.53.68-.98.81-.86,0-1.22-.16c-.16-.08-.33-.2-.49-.32-.12-.12-.29-.24-.37-.4.2,0,.37.04.53.04.16.04.33.04.49.04.33,0,.61.04.82-.04.24-.04.45-.16.65-.36.24-.16.45-.4.65-.73h0Z"/>
  <path class="cls-17" d="M179,121.93s-.94,35.98,12.71,35.98c19.4,0,12.75-37.75,12.75-37.75,0,0,4.28-1.74,4.93-1.82,9.21-1.45,17.24,6.53,28.68,16.7-12.3,3.87-8.96,12.87-7.33,18.03,0,0-2.16-.97-4.48-2.62-.49-.32-2.98-2.22-2.98-2.22,0,0-1.96,5.49-.77,9.07,3.1,9.6.41,17.99-2.28,21.05-2.61,2.9,2.2,11.29,2.93,16.21.29,1.98,1.02,2.99,1.06,4.07,0,.52-.73,4.15-.82,4.68-.37,2.22.65,8.07.65,8.07l-52.15,2.58s.98-7.99.65-9.72c-.57-2.86-1.75-4.32-1.47-8.87.12-2.1-1.26-7.74-1.18-9.36.08-1.77-.24-4.24-1.1-5.2s-3.22-3.23-3.95-11.5c-.69-7.7,1.47-15.57,1.47-15.57l-3.06,6.25s-2.69-11.62-17.56-9.6c12.39-25.61,16.99-34.97,33.29-28.48h0Z"/>
  <path class="cls-13" d="M244.23,82.65s-12.43-3.87-12.18-6.7c1.75-18.72-19.52-51.87-51.87-44.33,0,0-16.75,7.87-25.38,21.58-8.68,13.71-8.96,29.24-11.9,28.11,1.63,8.43,1.02,7.86,1.02,7.86l-.9,3.19s19.8,17.3,39.73,22.06c5.91,3.71,12.22.93,14.46-1.45,16.62-4.44,35.49-16.86,35.49-16.86l11.49-6.86-5.99-3.03,6.03-3.59h0Z"/>
  <path class="cls-3" d="M188.94,116.61c-2.08,0-4.28-.52-6.36-1.82-19.76-4.76-39.65-21.94-39.85-22.14l-.2-.16,1.02-3.79c0-.61-.16-2.34-1.1-7.34l-.12-.73.69.28c.12.04.2.04.29,0,.82-.4,1.59-3.27,2.53-6.61,1.51-5.44,3.79-13.71,8.6-21.34,8.64-13.67,25.38-21.66,25.59-21.74l.08-.04c16.3-3.79,28.32,2.78,35.49,8.95,10.84,9.36,17.93,24.4,16.87,35.78-.16,1.74,6.85,4.68,11.9,6.25l.86.28-6.11,3.67,5.99,3.03-12.14,7.22c-.16.12-19.03,12.42-35.49,16.86-1.71,1.86-4.93,3.39-8.52,3.39h0ZM143.51,92.21c2.08,1.78,20.78,17.39,39.36,21.82h.08l.04.04c5.95,3.75,12.06.61,13.93-1.37l.08-.08.12-.04c16.34-4.4,35.2-16.66,35.37-16.78l10.88-6.49-5.99-3.03,5.83-3.51c-3.26-1.05-11.86-4.11-11.61-6.82.9-9.56-4.52-24.69-16.58-35.13-7.05-6.05-18.78-12.5-34.71-8.79-.9.44-16.91,8.27-25.18,21.42-4.73,7.5-7.01,15.69-8.48,21.1-1.14,4.07-1.79,6.53-2.93,7.1-.08.04-.2.08-.33.12,1.22,6.49,1.1,7.46.85,7.7l-.73,2.74h0Z"/>
  <path class="cls-4" d="M232.82,86.24s4.12-.77,3.99-2.66c-6.15-.16-15.85-2.26-16.95-1.9-.2-1.33-.53-4.68-2.28-11.94-2.98-12.5-19.68-11.01-21.19-6.61-1.59,4.64,0,23.64,0,23.64l-21.07-1.01.49-3.23s2.28-11.46.16-17.87c-2.69-8.11-11.86-3.91-11.86-3.91-7.42,3.99-10.92,17.75-13.24,19.04s-7.86,3.71-7.86,3.71l5.42,4.07-3.22,6.45s21.51,16.66,37.53,20.01c5.46,2.9,10.59,1.86,14.46-1.61,12.84-3.51,32.27-15.41,35.08-17.99,3.26-2.99,7.09-5.36,7.09-5.36l-6.56-2.82h0Z"/>
  <g>
    <path class="cls-2" d="M186.37,93.5c-.16.97-.24,2.02-.29,3.03s0,2.02.2,2.94c.08.44.24.89.45,1.25.12.16.2.32.37.4.17.13.37.22.57.28.86.32,1.91.49,2.93.57,2.04.16,4.16,0,6.19-.48,1.02-.24,2-.61,2.85-1.13.45-.28.85-.57,1.22-.93.16-.16.37-.36.49-.57.16-.2.24-.44.53-.61.08.32-.12.52-.24.77-.16.24-.33.44-.49.64-.37.4-.77.77-1.22,1.09-.9.61-1.91,1.05-2.93,1.41-2.08.69-4.24.97-6.44.93-1.1-.04-2.2-.12-3.34-.48-.29-.08-.57-.2-.86-.4-.32-.2-.57-.44-.73-.73-.41-.52-.61-1.09-.77-1.65-.33-1.13-.41-2.22-.45-3.31s0-2.18.12-3.27l1.83.24h0Z"/>
    <path class="cls-2" d="M173.25,100.44l3.18.97,1.63.36c.53.12,1.1.16,1.63.24,1.1.12,2.16.12,3.22-.04.53-.08,1.02-.2,1.51-.36.24-.08.49-.16.69-.28.12-.04.2-.12.37-.16.12-.04.33.04.57.2l.2.32c.04.32-.04.52-.16.64s-.29.16-.41.24l-.86.32c-.57.2-1.18.32-1.79.4-1.18.12-2.4.08-3.54-.12s-2.28-.52-3.34-.89c-1.06-.4-2.12-.89-3.1-1.49l.2-.36h0ZM169.05,95.56c-.58-1.4-.64-2.96-.16-4.4.45-1.45,1.43-2.74,2.61-3.71s2.61-1.65,4.16-1.82c.77-.08,1.55-.08,2.28.16s1.38.69,1.83,1.29c-.57-.48-1.22-.77-1.91-.89s-1.43-.08-2.08.08c-.69.16-1.34.36-2,.69-.61.32-1.22.69-1.75,1.13-1.1.89-2,2.02-2.53,3.31-.57,1.25-.69,2.7-.45,4.15h0ZM194.97,85.88c1.06-.04,2.12.16,3.14.44s2,.77,2.89,1.33,1.71,1.33,2.36,2.18,1.06,1.86,1.26,2.86c-.53-.89-1.06-1.78-1.75-2.5-.16-.2-.37-.36-.53-.52s-.37-.36-.57-.48l-.57-.48-.61-.4c-.86-.52-1.75-1.01-2.69-1.41l-2.93-1.01h0Z"/>
    <path class="cls-2" d="M195.46,86.08c-.04.36-.24,2.02-.53,2.26-1.75,1.78-7.54,5.32-9.78,5.44-1.34.08-6.97-3.07-9.09-5.44-.41-.44-1.1-3.11-.33-4.19,1.18-1.73,20.13-2.86,19.72,1.94Z"/>
  </g>
  <path class="cls-3" d="M185.11,94.18c-1.63,0-7.25-3.15-9.37-5.57-.49-.52-1.26-3.39-.37-4.68,1.18-1.65,12.88-2.42,17.81-.69,2.32.81,2.73,2.02,2.65,2.86,0,.04-.2,2.06-.65,2.5-1.83,1.86-7.74,5.44-10.06,5.57h0ZM185.35,83.05c-4.44,0-8.8.64-9.29,1.33-.65.93.04,3.39.29,3.71,2.16,2.42,7.7,5.36,8.76,5.28,2.12-.08,7.74-3.55,9.54-5.32.12-.2.37-1.49.41-2.02.08-.85-.65-1.53-2.12-2.06-1.91-.69-4.77-.93-7.58-.93Z"/>
  <path class="cls-13" d="M190.24,86.08c.12-1.17-12.18-1.17-12.06.24,0,1.57,11.94.89,12.06-.24Z"/>
  <g>
    <path id="B" class="cls-6" d="M193.99,95.6c.36,0,.65-.29.65-.64,0-.36-.29-.65-.65-.64-.36,0-.65.29-.65.64,0,.36.29.65.65.64Z"/>
    <path id="B-2" data-name="B" class="cls-6" d="M191.18,99.03c.36,0,.65-.29.65-.64,0-.36-.29-.65-.65-.64-.36,0-.65.29-.65.64,0,.36.29.65.65.64Z"/>
    <path id="B-3" data-name="B" class="cls-6" d="M175.7,98.98c.36,0,.65-.29.65-.64,0-.36-.29-.65-.65-.64-.36,0-.65.29-.65.64,0,.36.29.65.65.64Z"/>
    <path id="B-4" data-name="B" class="cls-6" d="M180.1,98.74c.36,0,.65-.29.65-.64,0-.36-.29-.65-.65-.64-.36,0-.65.29-.65.64,0,.36.29.65.65.64Z"/>
    <path id="B-5" data-name="B" class="cls-6" d="M176.14,95.23c.36,0,.65-.29.65-.64,0-.36-.29-.65-.65-.64-.36,0-.65.29-.65.64,0,.36.29.65.65.64Z"/>
    <path id="B-6" data-name="B" class="cls-6" d="M195.05,99.03c.36,0,.65-.29.65-.64,0-.36-.29-.65-.65-.64-.36,0-.65.29-.65.64,0,.36.29.65.65.64Z"/>
  </g>
  <path class="cls-2" d="M182.46,108.02c.82.64,1.71,1.17,2.61,1.61.94.4,1.87.64,2.85.64.49,0,.98-.04,1.43-.16.24-.04.49-.12.69-.2.24-.12.45-.16.69-.28.92-.46,1.78-1.03,2.57-1.69-.57.89-1.34,1.65-2.24,2.22-.9.61-2.04.93-3.14.93s-2.2-.32-3.14-.89-1.75-1.29-2.32-2.18h0ZM200.22,97.57c0-.12.12-.16.2-.2s.16-.08.24-.08c.16-.04.37-.04.53-.04.37.04.73.16,1.06.4s.53.64.53,1.01c.04.4-.08.73-.33,1.01l-.33-.89c-.12-.24-.29-.4-.45-.57-.2-.16-.41-.28-.65-.4-.12-.04-.24-.12-.41-.16-.08-.04-.16-.04-.2-.08-.04,0-.08-.04-.12-.04,0,0-.04,0-.08.04h0ZM402.57,221.81c0,45.06-80.84,74.82-195.82,74.82S17.11,268.07,17.11,223.02c0-5.36,2.2-12.83,15.12-18.84,38.38-17.95,91.84,16.46,155.49,16.46,58.76,0,111.48-2.3,130.96-16.82,3.42-2.54,20.33-8.59,48.57-6.41,35.86,2.78,35.33,18.11,35.33,24.4Z"/>
  <path class="cls-10" d="M401.75,212.69c0,45.06-79.78,75.95-194.76,75.95S17.36,260.09,17.36,215.03c0-5.37,2.2-12.83,15.12-18.84,38.38-17.95,91.84,16.46,155.49,16.46,58.76,0,110.38-6.01,133.2-13.59,23.96-7.95,39.4-8.96,58.06-5.61,14.46,2.58,22.53,12.99,22.53,19.24h0Z"/>
  <path class="cls-2" d="M206.99,289.05c-56.6,0-104.35-6.9-138.09-19.93-33.98-13.15-51.95-31.87-51.95-54.09,0-8.11,5.01-14.36,15.32-19.2,21.92-10.24,48.53-3.59,79.37,4.15,22.9,5.73,48.85,12.26,76.32,12.26,55.13,0,108.63-5.45,133.08-13.55,22.94-7.58,38.71-9.12,58.27-5.61,14.71,2.62,22.86,13.27,22.86,19.64,0,11.17-4.85,21.66-14.38,31.18-9.25,9.24-22.78,17.34-40.13,24.08-17.32,6.74-38.06,11.98-61.65,15.57-24.12,3.63-50.69,5.49-79.01,5.49h0ZM58.18,191.39c-9.13,0-17.64,1.45-25.55,5.16-9.98,4.68-14.87,10.73-14.87,18.47,0,21.86,17.81,40.34,51.46,53.32,33.66,12.99,81.29,19.89,137.76,19.89s104.96-7.26,140.33-21.05c17.28-6.7,30.68-14.76,39.85-23.92,9.37-9.36,14.14-19.64,14.14-30.57,0-6.09-7.9-16.29-22.17-18.84-19.39-3.47-35.08-1.98-57.86,5.57-24.53,8.15-78.11,13.59-133.32,13.59-27.54,0-53.58-6.53-76.52-12.26-19.48-4.88-37.28-9.36-53.25-9.36h0Z"/>
  <path class="cls-5" d="M222.55,203.41s-19.15,6.82-30.07,6.66c-2.53,1.49,1.63,1.09,1.63,1.09l29.3-1.33-.85-6.41h0Z"/>
  <path class="cls-3" d="M145.67,89.95c-.73,0-1.47-.36-1.51-.36l.2-.36s1.02.52,1.79.28c.29-.08.45-.28.57-.52l.37.16c-.16.36-.45.61-.82.77-.24.04-.45.04-.61.04h0ZM270.88,167.64c-.65-.69-1.22-1.45-1.67-2.3s-.69-1.82-.82-2.74c-.08-.97.04-1.94.33-2.86l.24-.68.33-.65.37-.6c.12-.2.29-.4.41-.57-.29.89-.61,1.74-.73,2.62-.16.89-.2,1.77-.16,2.62.08.89.29,1.74.57,2.58l1.14,2.58h0Z"/>
  <path class="cls-2" d="M168.69,303c-16.62-.77-33.09-2.1-49.51-4.96-16.95-2.94-33.78-7.1-49.95-12.91-8.68-3.11-16.95-6.9-25.22-10.89-.9-.44-1.63.81-.77,1.33,6.81,3.99,14.26,7.1,21.64,9.88,8.19,3.11,16.54,5.73,24.98,7.95,16.91,4.48,34.23,7.58,51.67,9.24,9.01.89,18.13,1.49,27.18,1.17.57.04.57-.81,0-.81h0ZM33.29,267.43c.49.85,1.1,1.61,1.83,2.26.65.61,1.43.89,2.24,1.21.69.24,1.1-.81.49-1.13-1.38-.77-2.44-1.98-3.46-3.15-.53-.61-1.47.16-1.1.81h0ZM199.12,262.51l2.49-1.94,2.57-1.82,2.61-1.77,1.3-.85,1.35-.81-1.22.97-1.26.93-2.57,1.82-2.61,1.77-2.65,1.69h0Z"/>
  <path class="cls-13" d="M91.35,248.43l42.62,16.01,3.01,3.51-4.16.08-42.95-16.38s-1.06-1.01-.37-2.34c.57-.97,1.83-.89,1.83-.89h0Z"/>
  <g>
    <path class="cls-2" d="M132.79,268.44l-.08-.04-43.07-16.46c-.45-.4-1.1-1.57-.45-2.82.65-1.21,2.16-1.09,2.2-1.09l.12.04,42.74,16.05,3.63,4.23-5.09.08h0ZM90.13,251.33l42.82,16.3,3.22-.08-2.4-2.78-42.5-15.93c-.2,0-1.02.04-1.39.69-.45.89.08,1.61.25,1.82h0Z"/>
    <path class="cls-2" d="M89.57,249.73l-.29.76,43.22,16.19.29-.75-43.22-16.19h0Z"/>
    <path class="cls-2" d="M132.5,268.19c-.77-1.82.49-3.47,1.26-4.07l.53.64-.24-.32.24.32c-.08.04-1.75,1.45-1.02,3.11l-.77.32h0ZM88.82,252.71l12.1,4.56,12.06,4.68,12.02,4.76,5.99,2.42,5.99,2.46-6.07-2.26-6.03-2.3-12.02-4.72-12.02-4.76-12.02-4.84h0ZM89.07,252.14l11.78,4.44,11.73,4.56,11.69,4.64,5.83,2.34,5.83,2.38-5.91-2.22-5.87-2.26-11.74-4.56-11.69-4.64s-11.65-4.68-11.65-4.68ZM89.56,253.43l6.19,2.38,6.15,2.46,6.11,2.54,3.06,1.29,3.01,1.33-3.1-1.17-3.1-1.21-6.15-2.46-6.11-2.54-6.07-2.62h0ZM115.27,264.2c1.47.4,2.89.97,4.32,1.49,1.43.56,2.81,1.17,4.16,1.89-1.47-.4-2.89-.97-4.32-1.49-1.43-.57-2.81-1.17-4.16-1.9ZM97.1,257.42l4.6,1.57,4.44,1.94c-1.55-.44-3.1-.97-4.6-1.57,0,0-4.44-1.94-4.44-1.94ZM180.01,265.93c.2,1.33.24,2.62.29,3.95s.04,2.62-.12,3.95c-.2-1.33-.24-2.62-.29-3.95l.12-3.95ZM180.14,280.58c.2,1.33.24,2.62.29,3.95s.04,2.62-.12,3.95c-.2-1.33-.24-2.62-.29-3.95-.04-1.32,0-2.64.12-3.95h0ZM214.81,271.06l3.22,4.6,3.14,4.64,3.06,4.68,1.51,2.38,1.47,2.38-1.63-2.3-1.59-2.3-3.14-4.64-3.06-4.68-2.97-4.76h0ZM217.7,273.07l3.38,4.2,3.3,4.28,3.22,4.32,1.59,2.18,1.55,2.22-1.71-2.1-1.67-2.14-3.3-4.28-3.22-4.32-3.14-4.36h0ZM216.69,268.68l3.87,4.36,3.79,4.44,3.75,4.48,1.83,2.26,1.79,2.3-1.96-2.18-1.91-2.18-3.79-4.44-3.75-4.48-3.63-4.56h0ZM181.48,280.21l-.37-4.68-.24-4.68-.16-4.68-.04-2.34v-2.34l.2,2.34.16,2.34.24,4.68.16,4.68.04,4.68h0ZM212.04,267.99l.53,1.45.57,1.45,1.18,2.86,2.49,5.69,2.53,5.65,1.3,2.82,1.26,2.82-1.43-2.74-1.38-2.78-2.65-5.61-2.36-5.73c-.82-1.94-1.51-3.87-2.04-5.89h0ZM223.69,289.73l-.69-1.45-.73-1.45-1.51-2.82-3.1-5.61-3.01-5.65c-.98-1.89-1.88-3.83-2.65-5.85l.69,1.45.73,1.41,1.51,2.82,3.1,5.61,3.02,5.65,2.65,5.89ZM217.87,286.06l-1.91-4.15-1.83-4.2-1.75-4.23-.86-2.14-.82-2.14.98,2.06.94,2.1,1.83,4.19,1.75,4.24,1.67,4.27ZM265.42,283.68l-2.73-2.94-2.65-3.02-2.57-3.07-1.26-1.57-1.22-1.57,1.39,1.45,1.34,1.49,2.65,3.02,2.57,3.07,2.48,3.15h0ZM269.21,285.14l-2.73-2.95-2.65-3.02-2.57-3.07-1.26-1.57-1.22-1.57,1.39,1.45,1.34,1.49,2.65,3.02,2.57,3.07,2.48,3.15h0Z"/>
    <path id="C" class="cls-2" d="M272.55,284.73l-2.73-2.94-2.65-3.03-2.57-3.07-1.26-1.57-1.22-1.57,1.39,1.45,1.34,1.49,2.65,3.02,2.57,3.07,2.48,3.15h0Z"/>
    <path class="cls-2" d="M276.33,286.18l-2.73-2.94-2.65-3.02-2.57-3.07-1.26-1.57-1.22-1.57,1.39,1.45,1.34,1.49,2.65,3.03,2.57,3.07,2.48,3.15h0ZM275.68,281.38l-2.73-2.94-2.65-3.02-2.57-3.07-1.26-1.57-1.22-1.57,1.39,1.45,1.35,1.49,2.65,3.03,2.57,3.07,2.49,3.15h0ZM279.47,282.84l-2.73-2.94-2.65-3.02-2.57-3.07-1.26-1.57-1.22-1.57,1.39,1.45,1.35,1.49,2.65,3.02,2.57,3.07,2.49,3.15h0ZM283.51,282.43l-2.73-2.94-2.65-3.03-2.57-3.07-1.26-1.57-1.22-1.57,1.39,1.45,1.35,1.49,2.65,3.02,2.57,3.07,2.48,3.15h0Z"/>
    <path id="C-2" data-name="C" class="cls-2" d="M287.3,283.88l-2.73-2.94-2.65-3.03-2.57-3.07-1.26-1.57-1.22-1.57,1.39,1.45,1.34,1.49,2.65,3.02,2.57,3.07,2.48,3.15h0Z"/>
    <path class="cls-2" d="M288.72,281.71l-2.73-2.95-2.65-3.02-2.57-3.07-1.26-1.57-1.22-1.57,1.39,1.45,1.35,1.49,2.65,3.02,2.57,3.07,2.49,3.15h0ZM292.51,283.16l-2.73-2.94-2.65-3.03-2.57-3.07-1.26-1.57-1.22-1.57,1.39,1.45,1.35,1.49,2.65,3.02,2.57,3.07,2.49,3.15ZM292.51,279.37l-2.73-2.95-2.65-3.02-2.57-3.07-1.26-1.57-1.22-1.57,1.39,1.45,1.35,1.49,2.65,3.02,2.57,3.07,2.49,3.15ZM296.3,280.86l-2.73-2.95-2.65-3.02-2.57-3.07-1.26-1.57-1.22-1.57,1.39,1.45,1.35,1.49,2.65,3.02,2.57,3.07,2.49,3.15ZM207.07,269.4l1.39,4.4,1.3,4.44,1.18,4.44.57,2.22.53,2.26-.73-2.18-.69-2.22-1.3-4.44-1.18-4.44-1.06-4.48h0ZM208.13,270.49l1.83,5,1.71,5.04,1.63,5.08.77,2.54.73,2.58-.94-2.5-.9-2.5-1.71-5.04-1.63-5.08-1.51-5.12h0ZM210.08,270.41l2.04,4.76,1.96,4.8,1.87,4.84.9,2.42.85,2.46-1.06-2.38-1.02-2.38-1.96-4.8-1.88-4.84-1.71-4.88h0ZM207.8,267.39l1.91,4.8,1.79,4.84,1.71,4.88.82,2.46.77,2.46-.98-2.38-.94-2.42-1.79-4.84-1.71-4.88-1.59-4.92h0ZM205.93,268.8l1.47,5.04,1.34,5.08,1.26,5.12.61,2.58.57,2.58-.73-2.54-.69-2.54-1.35-5.08-1.26-5.12-1.22-5.12h0ZM206.91,285.34l-.9-3.63-.77-3.67-.69-3.67-.33-1.86-.29-1.86.49,1.82.45,1.82.77,3.67.69,3.67.57,3.71ZM208.74,286.95l-.94-3.63-.86-3.67-.73-3.67-.33-1.86-.29-1.86.49,1.82.45,1.82.85,3.67.73,3.67.61,3.71h0ZM199.12,271.9l.86,3.79.77,3.79.65,3.79.29,1.9.24,1.94-.45-1.9-.41-1.9-.77-3.79-.65-3.83-.53-3.79h0ZM198.02,272.59l.86,3.79.77,3.79.65,3.79.29,1.9.24,1.94-.45-1.9-.41-1.9-.77-3.79-.65-3.83-.53-3.79ZM202.71,272.07l1.02,3.95.94,3.95.82,3.99.37,2.02.33,2.02-.53-1.98-.49-1.98-.94-3.95-.82-3.99-.69-4.03h0ZM201.61,272.39l.94,3.83.85,3.83.77,3.87.33,1.94.29,1.94-.49-1.9-.45-1.9-.85-3.83-.77-3.87-.61-3.91ZM199.12,285.34l-.69-3.19-.57-3.23-.49-3.23-.2-1.61-.16-1.61.37,1.61.33,1.61.57,3.23.49,3.23.37,3.19h0ZM203.4,289.73l-1.06-4.88-.94-4.88-.85-4.88-.41-2.46-.37-2.46.53,2.42.49,2.42.94,4.88.86,4.88.82,4.96h0ZM195.33,288.08l-.49-3.23-.41-3.27-.29-3.27-.12-1.65-.08-1.65c.12.52.16,1.09.29,1.61l.24,1.61.41,3.27.29,3.27.16,3.31h0ZM197.74,288.04l-.61-3.23-.53-3.23-.41-3.27-.16-1.61-.12-1.65.33,1.61.29,1.61.53,3.23.41,3.27.29,3.27h0ZM196.96,291.31l-.65-4.6-.65-4.64-1.22-9.24.08.12-3.87-2.38.29-.2,1.06,10.16.98,10.2-1.26-10.16-1.18-10.17-.04-.4.37.2,3.87,2.38.08.04v.08l1.1,9.28.53,4.64.53,4.68h0ZM189.3,289.73l-.57-5.93-.45-5.97-.37-5.97-.16-2.98-.12-2.98.33,2.98.29,2.98.45,5.97.37,5.97.24,5.93h0ZM186.94,285.74l-.57-5.93-.45-5.97-.37-5.97-.16-2.98-.12-2.98.32,2.98.29,2.98.45,5.97.37,5.97.24,5.93ZM185.27,283.8l-.57-5.93-.45-5.97-.37-5.97-.16-2.98-.12-2.98.33,2.98.29,2.98.45,5.97.37,5.97.24,5.93h0ZM188.04,287.47l-.57-5.93-.45-5.97-.37-5.97-.16-2.98-.12-2.98.33,2.98.29,2.98.45,5.97.37,5.97.24,5.93h0Z"/>
    <path class="cls-2" d="M189.96,286.47l-.57-5.93-.45-5.97-.37-5.97-.16-2.98-.12-2.98.33,2.98.29,2.98.45,5.97.37,5.97.24,5.93h0ZM191.18,287.96l-.57-5.93-.45-5.97-.37-5.97-.16-2.98-.12-2.98.33,2.98.29,2.98.45,5.97.37,5.97.24,5.93h0ZM193.42,288.48l-.57-5.93-.45-5.97-.37-5.97-.16-2.98-.12-2.98.33,2.98.29,2.98.45,5.97.37,5.97.24,5.93h0ZM183.15,263.15l.53,7.22.45,7.22.33,7.22.12,3.63.08,3.63-.29-3.63-.24-3.63-.45-7.22-.33-7.22-.2-7.22ZM183.15,288.77l-.49-7.1-.37-7.1-.29-7.1-.12-3.55-.08-3.55.29,3.55.24,3.55.37,7.1.29,7.1.16,7.1h0ZM252.5,269.81l-19.31-24.44c-.73-.89-1.14-1.98-1.14-3.1v-4.32l111.77,11.01v1.45c0,3.35-2.32,6.29-5.58,7.1l-69.39,17.51c-6.36,1.53-12.18-.2-16.34-5.2h0Z"/>
    <path class="cls-2" d="M264.52,275.98c-4.85,0-9.13-2.02-12.35-5.89l-19.31-24.44c-.77-.93-1.22-2.14-1.22-3.35v-4.76l.45.04,112.13,11.05v1.85c0,3.55-2.4,6.61-5.91,7.46l-69.35,17.51c-1.51.36-3.02.52-4.44.52h0ZM252.83,269.57c3.95,4.76,9.62,6.58,15.93,5.08l69.35-17.51c3.1-.77,5.3-3.51,5.3-6.7v-1.09l-110.95-10.97v3.87c0,1.05.37,2.06,1.02,2.82l19.35,24.48h0Z"/>
  </g>
  <path class="cls-10" d="M254.9,266.82l-22.21-27.35c-1.34-1.53-.53-3.91,1.47-4.27l78.76-15.21,29.87,27.67c1.75,1.33,1.18,4.11-.98,4.6l-76.03,17.99c-3.99.97-8.19-.36-10.88-3.43h0Z"/>
  <path class="cls-2" d="M263.17,270.98c-3.26,0-6.4-1.37-8.6-3.87l-22.21-27.35c-.73-.81-.94-1.94-.57-2.95s1.22-1.77,2.28-1.98l78.96-15.25,29.99,27.83c.9.68,1.35,1.85,1.1,2.98-.25,1.15-1.14,2.04-2.28,2.3l-75.99,17.95c-.9.2-1.79.32-2.69.32ZM255.23,266.58c2.61,2.95,6.6,4.2,10.47,3.31l76.03-17.99c.86-.2,1.47-.85,1.67-1.69s-.12-1.69-.82-2.22l-29.74-27.55-78.6,15.13c-.77.16-1.43.69-1.67,1.45s-.08,1.57.45,2.18l22.21,27.39h0Z"/>
  <g>
    <path class="cls-6" d="M263.99,252.06c-1.75,0-3.46-.77-4.6-2.22-1.43-1.77-1.71-4.2-.69-6.25l22.33-44.65c3.38-6.78,9.62-11.7,17.07-13.47l69.39-16.46c2.24-.52,4.56.24,5.99,2.06,1.43,1.77,1.71,4.15.69,6.21l-22.33,47.07c-3.38,6.78-9.62,11.7-17.07,13.47l-.12.04-69.35,14.08c-.41.04-.86.12-1.3.12h0ZM367.77,175.58l-68.13,16.21c-5.58,1.33-10.23,5-12.75,10.08l-21.76,43.52,68.17-13.88c5.54-1.33,10.14-5,12.67-10.04l21.8-45.9h0Z"/>
    <path class="cls-6" d="M265.05,258.19c-.11,0-.21-.04-.29-.12l-4.69-5.08c-.08-.12-.12-.24-.08-.4s.16-.24.33-.28l21.15-4.03c.16-.04.37.04.45.2l2.81,4.96c.08.11.08.26,0,.36-.04.12-.16.2-.29.24l-19.31,4.11s-.04.04-.08.04h0ZM261.14,252.95l4.03,4.4,18.5-3.99-2.4-4.24-20.13,3.83h0Z"/>
    <path class="cls-6" d="M254.38,254.4c-.12,0-.2-.04-.29-.12l-4.73-5.08c-.08-.12-.12-.24-.08-.4s.16-.24.33-.28l21.15-4.03c.16-.04.37.04.45.2l2.81,4.96c.08.12.08.24,0,.36-.04.12-.16.2-.29.24l-19.27,4.15h-.08ZM250.46,249.15l4.03,4.4,18.5-3.99-2.4-4.24-20.13,3.83h0ZM266.64,241.25c-.11,0-.21-.04-.29-.12l-6.8-7.34c-.08-.12-.12-.24-.08-.4s.16-.24.33-.28l30.76-5.85c.12-.04.24,0,.37.12.08.08.12.2.12.36l-1.06,8.39c-.04.16-.16.32-.33.36l-22.94,4.84q-.04-.08-.08-.08h0ZM260.65,233.75l6.15,6.65,22.41-4.72.94-7.54-29.5,5.61Z"/>
    <path class="cls-6" d="M274.38,254.16c-.08,0-.2-.04-.29-.12l-3.55-3.23c-.15-.15-.17-.39-.04-.57.15-.15.4-.17.57-.04l3.55,3.23c.16.16.16.4.04.56-.04.12-.16.16-.29.16Z"/>
  </g>
  <g>
    <path class="cls-2" d="M354.98,240.28l-78.56,21.58-1.83-1.94c-1.59-1.69-2-4.2-.94-6.29l20.94-42.59c3.02-6.05,8.6-10.45,15.2-12.02l63.15-15.29c1.92-.44,3.91-.4,5.79.16l5.09,1.9-28.85,54.49h0Z"/>
    <path class="cls-2" d="M276.3,262.35l-2-2.1c-1.71-1.82-2.12-4.52-1.02-6.74l20.94-42.59c3.1-6.17,8.72-10.61,15.48-12.22l63.15-15.29c2-.48,4.08-.4,6.03.16l5.54,2.06-29.17,55.02-.16.04-78.8,21.66h0ZM375.51,183.85c-.82,0-1.67.08-2.49.28l-63.15,15.29c-6.47,1.51-11.94,5.83-14.91,11.78l-20.94,42.6c-.94,1.94-.61,4.28.9,5.85l1.67,1.73,78.15-21.46,28.56-53.93-4.68-1.74c-1.02-.24-2.04-.4-3.1-.4h0Z"/>
  </g>
  <path class="cls-10" d="M347.4,245.52l-69.39,16.5c-2.2.52-3.99-1.73-2.98-3.71l22.33-44.65c2.97-5.93,8.43-10.24,14.91-11.78l69.39-16.5c2.2-.52,3.99,1.73,2.98,3.71l-22.33,44.65c-2.93,5.93-8.39,10.21-14.91,11.78h0Z"/>
  <g>
    <path class="cls-2" d="M277.4,262.47c-.9,0-1.79-.4-2.36-1.13-.73-.93-.9-2.18-.37-3.23l22.33-44.65c3.02-6.05,8.56-10.41,15.2-11.98l69.39-16.5c1.18-.28,2.36.12,3.1,1.05s.9,2.18.37,3.23l-22.33,44.65c-3.02,6.05-8.56,10.41-15.2,11.98l-69.39,16.5c-.24.08-.49.08-.73.08ZM382.27,185.71c-.18,0-.36.03-.53.08l-69.39,16.5c-6.4,1.53-11.73,5.73-14.63,11.58l-22.33,44.65c-.41.77-.29,1.69.24,2.38s1.43.97,2.28.77l69.39-16.5c6.4-1.53,11.73-5.73,14.63-11.58l22.33-44.65c.41-.77.29-1.7-.24-2.38-.45-.52-1.06-.85-1.75-.85ZM303.76,252.06l18.3-4.52,18.29-4.44,4.56-1.09c1.51-.33,2.98-.84,4.36-1.53,2.73-1.37,5.05-3.55,6.8-6.05.9-1.25,1.63-2.58,2.36-3.95l2.2-4.11,4.6-8.15-3.99,8.47-2.12,4.15c-.73,1.37-1.51,2.78-2.45,4.03-1.83,2.58-4.24,4.8-7.13,6.25-1.43.73-2.95,1.24-4.52,1.53l-4.6,1.05-18.34,4.24-18.33,4.11h0ZM274.62,222.65c1.06-2.78,2.28-5.57,4.03-8.07l.65-.93.73-.89c.49-.6,1.06-1.09,1.59-1.65.24-.28.57-.48.9-.73.29-.24.61-.48.9-.69l.98-.65.98-.6c2.69-1.49,5.62-2.46,8.56-3.15,2.93-.73,5.95-1.17,8.92-1.53l-4.4,1.01-2.2.52-2.16.6c-2.89.85-5.7,1.82-8.31,3.27-2.61,1.41-4.85,3.43-6.6,5.77-1.79,2.38-3.18,5.04-4.56,7.7h0ZM288.72,267.99l3.26,3.31,3.18,3.39,3.1,3.47,1.51,1.73,1.51,1.77-3.26-3.31-3.18-3.39-3.1-3.47-3.02-3.51h0ZM290.03,266.46l3.26,3.31,3.18,3.39,3.1,3.47,1.51,1.73,1.51,1.77-3.26-3.31-3.18-3.39-3.1-3.47-3.02-3.51h0ZM292.51,266.3l3.79,3.91,3.71,3.99,3.63,4.07,1.79,2.06,1.75,2.1-1.92-1.94-1.87-1.98-3.71-3.99-3.63-4.07-3.55-4.15h0ZM296.3,265.65l4.11,3.91,4.03,3.99,3.95,4.03,1.96,2.06,1.92,2.06-2.08-1.94-2.04-1.98-4.03-3.99-3.95-4.03-3.87-4.11h0ZM294.39,266.34l4.11,3.91,4.03,3.99,3.95,4.03,1.96,2.06,1.92,2.06-2.08-1.94-2.04-1.98-4.03-3.99-3.95-4.03-3.87-4.11ZM303.76,264.68l4.36,3.39,4.28,3.47,4.2,3.55,2.08,1.77,2.04,1.82-2.2-1.65-2.16-1.69-4.28-3.47-4.2-3.55-4.11-3.63h0ZM305.88,268.31l3.59,2.82,3.5,2.9,3.42,2.98,1.71,1.53,1.67,1.53-1.79-1.41-1.79-1.41-3.51-2.9-3.42-2.98-3.38-3.07h0ZM300.91,265.61l3.99,3.51,3.91,3.59,3.87,3.67,1.92,1.86,1.87,1.9-2-1.73-2-1.77-3.91-3.59-3.87-3.67-3.79-3.75ZM299.36,266.06l3.99,3.51,3.91,3.59,3.87,3.67,1.92,1.86,1.87,1.9-2-1.73-2-1.77-3.91-3.59-3.87-3.67-3.79-3.75h0ZM309.54,263.15l4.24,3.11,4.2,3.19,4.12,3.27,2.04,1.65,2,1.69-2.12-1.53-2.12-1.57-4.16-3.19-4.11-3.27-4.08-3.35h0ZM307.26,263.03l3.95,3.15,3.87,3.23,3.83,3.31,1.87,1.65,1.88,1.69-2-1.53-1.96-1.57-3.87-3.23-3.83-3.31-3.75-3.39ZM306.12,264.04l3.87,3.15,3.79,3.23,3.75,3.31,3.67,3.39-1.96-1.57-1.92-1.57-3.79-3.23-3.75-3.31-3.67-3.39ZM316.51,260.41l4.48,3.27,4.4,3.39,4.36,3.43,2.16,1.73,2.12,1.77-2.24-1.61-2.24-1.65-4.4-3.39-4.36-3.43-4.28-3.51h0ZM315.29,261.5l4.48,3.27,4.4,3.39,4.36,3.43,2.16,1.73,2.12,1.77-2.24-1.61-2.24-1.65-4.4-3.39-4.36-3.43-4.28-3.51ZM313.94,262.43l4.48,3.27,4.4,3.39,4.36,3.43,2.16,1.73,2.12,1.77-2.24-1.61-2.24-1.65-4.4-3.39-4.36-3.43-4.28-3.51h0ZM319.24,260.33l4.48,3.27,4.4,3.39,4.36,3.43,2.16,1.73,2.12,1.77-2.24-1.61-2.24-1.65-4.4-3.39-4.36-3.43-4.28-3.51h0ZM325.84,258.8l4.73,3.02,4.69,3.11,4.6,3.19,2.28,1.61,2.28,1.65-2.36-1.49-2.36-1.53-4.68-3.11-4.61-3.19-4.56-3.27h0ZM324.74,260.01l4.73,3.03,4.68,3.11,4.61,3.19,2.28,1.61,2.28,1.65-2.36-1.49-2.36-1.53-4.69-3.11-4.6-3.19-4.56-3.27h0ZM311.13,262.06l3.46,2.5,3.38,2.58,3.3,2.66,1.63,1.37,1.63,1.41-1.75-1.25-1.71-1.29-3.38-2.58-3.3-2.66-3.26-2.74ZM322.46,259.2l4.64,3.43,4.56,3.51,4.52,3.55,2.24,1.82,2.2,1.86-2.32-1.69-2.32-1.73-4.56-3.51-4.52-3.55-4.44-3.67ZM321.4,260.09l4.64,3.43,4.56,3.51,4.52,3.55,2.24,1.82,2.2,1.86-2.32-1.69-2.32-1.73-4.56-3.51-4.52-3.55-4.44-3.67h0ZM327.35,258.43l4.68,2.82,4.61,2.9,4.56,2.98,2.28,1.53,2.24,1.57-2.36-1.41-2.32-1.41-4.6-2.94-4.56-2.98-4.52-3.07h0ZM350.7,268.68l-4.81-2.74-4.73-2.82-4.69-2.9-2.32-1.49-2.32-1.53,2.4,1.33,2.4,1.37,4.73,2.82,4.69,2.9,4.64,3.07h0ZM348.5,268.92l-4.81-2.82-4.73-2.9-4.69-2.98-2.32-1.53-2.32-1.57,4.81,2.82,4.73,2.9,4.69,2.98,4.64,3.11ZM347.68,269.97l-4.81-2.82-4.73-2.9-4.69-2.98-2.32-1.53-2.32-1.57,4.81,2.82,4.73,2.9,4.69,2.98,4.64,3.11h0ZM349.6,264.73l-4.03-2.18-3.95-2.26-3.91-2.34-1.96-1.21-1.92-1.25,2.04,1.09,2,1.13,3.95,2.26,3.91,2.34,3.87,2.42ZM349.8,266.5l-4.03-2.18-3.95-2.26-3.91-2.34-1.96-1.21-1.92-1.25,2.04,1.09,2,1.13,3.95,2.26,3.91,2.34,3.87,2.42ZM336.52,255.93l9.86,4.76,9.82,4.8h-.08,4.16l3.75-1.29v.36l-11.73-5.2-11.69-5.32,11.82,5.04,11.78,5.12.45.2-.49.16-3.75,1.29h-4.4l-9.78-4.92-9.7-5h0Z"/>
    <path class="cls-2" d="M336.92,254.88l9.86,4.76,9.82,4.8h-.08,4.16l3.75-1.29v.36l-11.73-5.2-11.69-5.32,11.82,5.04,11.77,5.12.45.2-.49.16-3.75,1.29h-4.4l-9.78-4.92-9.7-5h0ZM345.73,250.57l5.46,2.18,5.42,2.26,5.42,2.34,2.69,1.17,2.69,1.21c-1.87-.61-3.67-1.37-5.5-2.1l-5.46-2.26-5.42-2.34-5.3-2.46ZM344.55,247.06l5.79,2.3,5.74,2.38,5.7,2.46,5.7,2.5-5.79-2.22-5.74-2.38-5.7-2.46-5.7-2.58h0ZM353.59,248.35l3.87,1.25,3.83,1.37,3.83,1.45,1.92.77,1.87.81-1.96-.6-1.95-.65-3.83-1.37-3.83-1.45-3.75-1.57h0ZM341.08,255.45l3.75,1.61,3.71,1.69,3.67,1.77,1.83.93,1.79.97-1.87-.77-1.88-.81-3.71-1.69-3.67-1.77-3.63-1.94ZM343.32,248.19l4.85,1.85,4.81,1.94,4.77,2.02,2.36,1.05,2.36,1.09-2.45-.89-2.4-.93-4.81-1.94-4.77-2.02-4.73-2.18h0ZM343.36,252.99l4.03,1.53,3.99,1.61,3.95,1.73,1.96.89,1.96.93-2.04-.73-2-.77-3.99-1.61-3.95-1.74-3.91-1.85h0ZM343.81,251.54l4.73,1.77,4.69,1.85,4.64,1.98,2.32,1.01,2.28,1.05-2.36-.85-2.36-.89-4.69-1.85-4.64-1.98-4.6-2.1h0ZM92.08,238.31c1.39.48,2.73,1.05,4.03,1.65l3.87,2.02c-1.39-.48-2.73-1.05-4.03-1.65l-3.87-2.02h0ZM93.35,237.01c1.14.36,2.2.85,3.26,1.33l3.06,1.69c-1.14-.36-2.2-.85-3.26-1.33s-2.08-1.01-3.06-1.69ZM91.15,232.98c1.43.4,2.77.93,4.16,1.49l3.99,1.85c-1.43-.4-2.77-.93-4.16-1.49l-3.99-1.86h0ZM90.78,231.17c1.47.48,2.89,1.09,4.32,1.69l4.16,2.06c-1.47-.48-2.89-1.09-4.32-1.7l-4.16-2.06h0ZM90.78,234.39c1.47.48,2.89,1.09,4.32,1.69l4.16,2.06c-1.47-.48-2.89-1.09-4.32-1.69s-2.81-1.25-4.16-2.06ZM90.01,239.07l2.53,1.09,2.49,1.17,2.44,1.25,1.22.65,1.18.68-1.26-.52-1.26-.57-2.49-1.17-2.44-1.25-2.4-1.33h0ZM93.51,228.5c1.18.4,2.32.89,3.46,1.41s2.24,1.09,3.3,1.77c-1.18-.36-2.32-.89-3.46-1.41s-2.24-1.09-3.3-1.77ZM96.12,228.46c.9.2,1.79.48,2.65.81.87.32,1.7.73,2.49,1.21-.9-.21-1.78-.48-2.65-.81-.86-.36-1.71-.73-2.49-1.21h0ZM97.91,226.81c.6.08,1.19.24,1.75.48.57.24,1.1.48,1.59.85-.6-.08-1.19-.24-1.75-.48-.57-.2-1.1-.49-1.59-.85ZM100.72,246.29c-1.18-.44-2.32-1.01-3.46-1.61-1.1-.6-2.24-1.21-3.26-1.98,1.18.44,2.32,1.01,3.46,1.61l3.26,1.98h0ZM93.31,230.6c-.49,0-.9-.16-1.3-.32s-.82-.36-1.18-.69c.49,0,.9.16,1.3.32.45.16.86.36,1.18.69ZM100.19,233.55c-1.06-.36-2.08-.81-3.1-1.29s-2-1.05-2.93-1.65c1.06.36,2.08.81,3.1,1.29s2,1.01,2.93,1.65Z"/>
  </g>
  <path class="cls-5" d="M220.72,179.57s-5.91,4.52-15.97,6.54c-2.04,2.26,10.35,7.91,12.67,5.93,2.36-1.98,3.91-.65,3.26-3.35-.61-2.7,1.39-8.75.04-9.12ZM171.05,186.35s11.08,12.95,27.14,14.68c-1.59,2.62-13,0-16.34-.85-2.4-.6-10.47-6.82-10.35-11.78.04-.77-.45-2.06-.45-2.06ZM171.05,179.57s11.41,5.2,19.4,5.2c4.73,0,8.23,2.22,3.59,6.25s-19.68-6.05-19.68-6.05l-3.3-5.4ZM204.75,157.35s-12.06,7.34-19.19,3.99c0,3.71,4.44,9.96,5.54,9.6s4.44,2.06,7.13,1.09c2.81-1.01,6.52-14.68,6.52-14.68h0Z"/>
  <path class="cls-3" d="M221.98,178.41l-1.14,1.25c-.37.4-.77.85-1.22,1.21-.9.73-1.92,1.25-2.93,1.74-2.08.93-4.2,1.69-6.32,2.42l-1.55.57c-.49.2-.94.48-1.26.85-.29.36-.29.73,0,1.09.29.4.73.73,1.18,1.01.94.57,1.96,1.01,2.98,1.41,1.06.4,2.12.73,3.22,1.01-1.14-.12-2.24-.4-3.3-.68-1.1-.32-2.16-.69-3.18-1.25-.49-.28-1.02-.6-1.38-1.13-.2-.24-.37-.57-.37-.97,0-.36.16-.73.37-1.01.41-.52.98-.81,1.47-1.09l1.59-.65,6.32-2.3c1.02-.4,2.04-.85,2.93-1.45.9-.52,1.71-1.33,2.61-2.02h0ZM218.15,196.92c-.45.48-1.06.73-1.67.97l-1.83.65-3.75.93c-2.53.52-5.09.89-7.66,1.09-2.57.2-5.17.24-7.74.04-1.3-.12-2.57-.32-3.83-.6-1.26-.32-2.49-.77-3.59-1.45,1.14.57,2.4.89,3.67,1.09,1.25.2,2.52.32,3.79.36,2.57.08,5.09,0,7.66-.2l3.83-.36,3.79-.52,3.79-.73c.63-.12,1.26-.28,1.88-.48.33-.08.61-.2.9-.32l.45-.2c.08-.04.2-.16.33-.24h0ZM170.2,183.45c0,.4.12.81.24,1.21l.24.57.29.56.65,1.05c.12.16.24.32.33.48l.37.48c1.02,1.29,2.16,2.46,3.42,3.55l.94.81.98.77c.61.52,1.3,1.01,1.96,1.49l2.04,1.45,2.04,1.41-2.28-1.09-2.16-1.25c-1.43-.93-2.81-1.9-4.03-3.03-1.26-1.13-2.45-2.34-3.38-3.75-.49-.69-.9-1.45-1.22-2.22l-.2-.6c-.08-.2-.12-.4-.16-.6-.04-.44-.12-.89-.04-1.29h0ZM185.43,207.89l-6.6-2.54-2.2-.81-1.1-.32c-.08,0-.16-.04-.24-.04h-.16s.04,0,.08-.08.04-.12.04-.16c0,.04.04.12.04.16.12.28.37.57.65.81l.86.77,1.79,1.53.86.85c.24.32.53.65.53,1.05-.04-.2-.16-.36-.29-.49-.11-.15-.25-.29-.41-.4-.29-.24-.61-.48-.94-.69l-1.96-1.33-.94-.73c-.29-.28-.61-.56-.86-.97-.04-.12-.12-.24-.12-.4,0-.12,0-.28.08-.44.12-.12.24-.2.33-.2.16-.04.33-.04.45-.04s.24.04.33.04c.4.08.79.19,1.18.32,1.51.52,2.97,1.17,4.36,1.86,1.45.68,2.86,1.43,4.24,2.26h0ZM183.97,209.91l4.03-.08,4.03-.24c2.69-.2,5.34-.52,7.95-1.01l1.96-.36,1.96-.44.98-.2.98-.28,1.96-.56,1.91-.6c.33-.08.65-.2.94-.32l.94-.36c1.26-.4,2.45-1.09,3.71-1.61-2.28,1.41-4.73,2.62-7.25,3.51-2.57.89-5.17,1.57-7.86,2.02-2.65.44-5.38.73-8.07.81-2.77.12-5.46.08-8.15-.24h0ZM209.43,157.35c-.53,1.25-1.26,2.46-2.16,3.51-.45.56-.9,1.05-1.39,1.53s-1.06.93-1.59,1.37c-1.14.81-2.4,1.49-3.75,1.94s-2.77.57-4.16.4c1.38-.16,2.69-.48,3.91-1.01.61-.24,1.22-.52,1.79-.89.58-.33,1.14-.69,1.67-1.09,1.1-.77,2.08-1.69,3.01-2.66s1.79-1.98,2.65-3.11h0ZM202.22,159.61c-.41.4-.9.77-1.38,1.05-.48.32-.98.6-1.51.85-.53.24-1.06.44-1.63.6s-1.14.28-1.71.32l1.47-.89c.49-.28,1.02-.52,1.51-.77l1.59-.65c.53-.24,1.1-.4,1.67-.52h0ZM176.84,131.94l.16,4.36.45,4.32c.41,2.86.98,5.69,1.91,8.43.45,1.37,1.02,2.69,1.71,3.95.16.32.33.65.53.93l.57.89,1.3,1.69c.94,1.05,2.04,2.06,3.26,2.78,1.22.77,2.57,1.33,3.99,1.73-1.47-.24-2.85-.73-4.2-1.41-1.3-.69-2.49-1.65-3.5-2.7-2.08-2.14-3.46-4.88-4.44-7.62-.94-2.78-1.51-5.69-1.79-8.59-.24-2.9-.24-5.85.04-8.75h0ZM207.56,123.59c.61,2.66.98,5.36,1.22,8.07.24,2.71.33,5.43.24,8.15-.04,1.37-.16,2.74-.33,4.07-.16,1.37-.41,2.7-.73,4.03-.65,2.66-1.67,5.28-3.42,7.38.73-1.13,1.3-2.38,1.75-3.63s.77-2.58,1.06-3.87c.49-2.62.73-5.32.86-8.03l-.08-8.11-.57-8.07h0Z"/>
  <g>
    <path class="cls-2" d="M195.99,55.42s8.07-3.15,15.08,7.34c-6.11-6.05-15.08-7.34-15.08-7.34ZM200.06,68.41c.69-.97,1.75-1.69,2.93-2.02.61-.16,1.26-.2,1.88-.12.63.08,1.24.29,1.79.61,1.1.61,2,1.45,2.69,2.42s1.26,2.02,1.67,3.11l-2.16-2.7c-.77-.85-1.63-1.61-2.61-2.14s-2.08-.73-3.14-.57-2.12.69-3.05,1.41h0ZM199.53,77.81c.65-1.01,1.45-1.92,2.36-2.7.94-.81,2-1.45,3.22-1.9s2.65-.57,3.95-.12c.65.2,1.26.61,1.75,1.05.53.44.9.97,1.22,1.49l-.37-.24c.29.08.53.16.82.16s.57,0,.9-.08c.61-.16,1.22-.44,1.79-.85-.33.61-.86,1.13-1.51,1.53-.33.2-.69.32-1.06.4-.41.08-.82.08-1.18.04h-.16l-.2-.2c-.73-.81-1.59-1.45-2.53-1.73s-1.96-.2-3.01.08c-1.02.28-2.08.77-3.06,1.29-.94.48-1.91,1.13-2.93,1.78h0Z"/>
    <path class="cls-2" d="M207.4,73.73c-.2-.08-.45-.12-.69-.16-.04,0-.08,0-.12-.04-.04,0-.2-.04-.2-.04h-.61c-.12,0-.2,0-.29.04h-.12c-.16,0-.37.08-.57.08l-.98.24c-.24.81-.37,1.78-.37,2.78,0,2.82,1.06,5.12,2.36,5.12s2.36-2.3,2.36-5.12c0-1.05-.16-2.02-.41-2.78l-.37-.12h0Z"/>
    <path class="cls-2" d="M202.63,81.76l4.81-.32,2.32-.28c.37-.08.73-.16,1.1-.32s.69-.36.94-.69c-.08.4-.37.77-.73,1.01-.36.24-.74.44-1.14.61-.82.28-1.63.4-2.44.48s-1.63.04-2.45-.04-1.63-.2-2.4-.44h0ZM176.1,56.91s-7.7-2.99-14.42,7.02c5.83-5.81,14.42-7.02,14.42-7.02ZM172.19,69.3c-.9-.69-1.91-1.17-2.93-1.33-1.06-.16-2.08.04-3.01.52s-1.75,1.21-2.49,2.02-1.39,1.69-2.08,2.58c.41-1.05.94-2.06,1.59-2.99s1.51-1.73,2.57-2.34c.53-.28,1.1-.48,1.71-.57s1.22-.04,1.79.12c1.18.36,2.2,1.05,2.85,1.98ZM172.68,78.29l-2.89-1.73c-.98-.52-1.96-.97-2.93-1.25s-1.96-.32-2.85-.08-1.67.85-2.4,1.61l-.2.2h-.16c-.37.04-.77.04-1.14-.04s-.73-.2-1.02-.4c-.59-.35-1.08-.85-1.43-1.45.52.36,1.1.63,1.71.81.29.08.57.08.86.08s.53-.08.77-.16l-.37.24c.61-1.01,1.59-1.98,2.85-2.42s2.65-.32,3.83.08,2.2,1.05,3.06,1.82c.98.85,1.75,1.69,2.32,2.7h0Z"/>
    <path class="cls-2" d="M164.37,74.38c.2-.08.45-.12.65-.16.04,0,.08,0,.12-.04.04,0,.16,0,.2-.04h.94c.16,0,.37.08.53.08l.94.2c.24.77.37,1.69.37,2.66,0,2.7-1.02,4.88-2.28,4.88s-2.28-2.18-2.28-4.88c0-1.01.12-1.9.37-2.66.2.04.33,0,.45-.04h0Z"/>
    <path class="cls-2" d="M169.75,82.08c-.73.24-1.51.36-2.32.44-.77.08-1.55.08-2.36.04-.77-.04-1.59-.2-2.32-.44-.37-.12-.73-.32-1.1-.57-.33-.24-.61-.61-.69-.97.24.32.57.52.9.64s.69.24,1.06.28l2.24.28,4.6.28h0ZM24.2,210.07l10.31,6.7,10.23,6.78-.12-.04,3.06-.4-.08.36-11.74-7.82-11.65-7.91,5.91,3.79,5.91,3.83,12.18,8.03-.53.08-3.06.36h-.08l-.04-.04-10.19-6.86c-3.4-2.23-6.77-4.52-10.1-6.86h0ZM26.69,202.04c1.51,1.25,3.14,2.3,4.77,3.35l10.02,6.05,4.81,3.35-.33.16c0-.2-.12-.36-.28-.48s-.41-.2-.65-.24-.49-.08-.69-.04c-.12,0-.24.04-.24.08v-.04l.08.08-.33.16c0-.36.08-.69.24-1.01.16-.28.37-.57.57-.77.2-.24.41-.44.49-.73.08-.24,0-.48-.16-.73l.04.04-7.46-4.76-3.75-2.34-3.79-2.26,3.87,2.14,3.79,2.26,7.54,4.64h.04l.04.04c.2.28.33.69.2,1.05s-.33.6-.53.85-.41.48-.53.73-.2.52-.16.81l.04.44-.33-.28c-.06-.06-.12-.13-.16-.2-.04-.04-.04-.12-.04-.2s.04-.16.08-.2c.16-.16.33-.16.49-.2.28-.04.57,0,.86.04s.53.12.77.28.49.44.49.81v.44l-.33-.28c-1.47-1.21-3.14-2.3-4.77-3.35l-4.97-3.07-4.97-3.11c-1.71-1.09-3.34-2.18-4.77-3.51h0ZM26.4,206.6l7.82,5.57,8.03,5.2-.08-.04s.16-.12.24-.28.2-.32.28-.48c.16-.32.33-.65.57-.97l.04.28-1.1-.69-.85-.48-.12-.08-.04-.04s-.04,0,0,0h.08s.08-.04.08-.08c.04-.08,0-.12,0-.12v-.08l.08.08.12.08.24.2.53.36c.16.12.37.24.53.32.08.04.2.08.28.12.04.04.08.04.12.04h0l-.04.04.04.28c-2.97-2.1-6.07-3.95-9.13-5.89s-6.15-3.87-9.05-6.05c3.01,2.06,6.11,3.91,9.21,5.81,3.1,1.86,6.19,3.79,9.21,5.81l.16.12-.12.16-.08.08s-.04,0-.08.04h-.08s-.08,0-.12-.04c-.08,0-.12-.04-.16-.08-.12-.04-.2-.08-.33-.16-.2-.12-.37-.2-.57-.32s-.37-.24-.53-.36l-.28-.2-.12-.12s-.08-.04-.16-.16l-.04-.04v-.16c.04-.08.08-.08.12-.08h.16s.04,0,.08.04l.08.04.16.08.28.16.57.32,1.1.69.16.12-.12.16c-.2.28-.37.6-.57.93-.08.17-.17.33-.28.48-.04.08-.12.16-.2.24s-.2.16-.37.2h-.04l-.04-.04c-2.77-1.57-5.42-3.39-7.99-5.28-2.65-1.85-5.13-3.83-7.7-5.73h0Z"/>
    <path class="cls-2" d="M33,201.36l4.24,2.18,4.16,2.26,4.11,2.34,2.04,1.21,2.04,1.25-4.24-2.18-4.16-2.26-4.11-2.34-4.08-2.46h0ZM37.16,201.96l4.24,2.18,4.16,2.26,4.11,2.34,2.04,1.21,2.04,1.25-4.24-2.18-4.16-2.26-4.11-2.34-4.07-2.46h0Z"/>
    <path id="D" class="cls-2" d="M38.42,200.75l4.24,2.18,4.16,2.26,4.11,2.34,2.04,1.21,2.04,1.25-4.24-2.18-4.16-2.26-4.11-2.34-4.08-2.46h0Z"/>
    <path id="D-2" data-name="D" class="cls-2" d="M31.05,204.34l4.24,2.18,4.16,2.26,4.11,2.34,2.04,1.21,2.04,1.25-4.24-2.18-4.16-2.26-4.11-2.34-4.08-2.46h0Z"/>
    <path class="cls-2" d="M33.49,202.81l4.24,2.18,4.16,2.26,4.11,2.34,2.04,1.21,2.04,1.25-4.24-2.18-4.16-2.26-4.11-2.34-4.08-2.46h0ZM31.01,206.16l4.11,2.38,4.03,2.5,3.99,2.58,2,1.33,1.96,1.33-2.08-1.17-2.04-1.21-4.03-2.5-3.99-2.58-3.95-2.66h0Z"/>
  </g>
  <path class="cls-6" d="M42.33,193.73s-10.47-1.69-9.25,11.01,4.08,13.07,9.25,13.15v-3.83s-5.99.2-5.62-8.27c-.45-10.81,5.62-8.39,5.62-8.39v-3.67h0Z"/>
  <path class="cls-2" d="M42.74,218.3h-.41c-5.5-.08-8.39-.69-9.66-13.51-.41-4.32.45-7.46,2.53-9.44,2.89-2.66,7.01-2.06,7.17-2.02l.33.04v4.6l-.57-.2s-1.63-.6-3.01.36c-1.51,1.09-2.24,3.71-2.08,7.66-.12,2.94.53,5.12,1.87,6.45,1.47,1.45,3.34,1.41,3.34,1.41h.41v4.64s.08,0,.08,0ZM41.19,194.06c-1.35,0-3.67.28-5.42,1.9-1.92,1.77-2.69,4.72-2.28,8.75,1.18,12.3,3.95,12.71,8.43,12.79v-3.02c-.73-.08-2.24-.36-3.54-1.65-1.51-1.49-2.24-3.87-2.12-7.06-.16-4.28.65-7.06,2.44-8.35,1.18-.85,2.49-.73,3.22-.6v-2.74h-.73Z"/>
  <path class="cls-10" d="M71.59,189.86h-29.22v32.03c1.02,2.66,6.6,4.8,14.02,4.8,8.11,0,15.16-2.99,15.16-6.01.04-.28.04-30.82.04-30.82h0Z"/>
  <path class="cls-2" d="M56.39,227.13c-7.33,0-13.28-2.1-14.42-5.08l-.04-.08v-32.51h30.03v31.26c.04,3.43-7.25,6.41-15.57,6.41ZM42.78,221.85c.94,2.18,5.99,4.48,13.61,4.48,8.31,0,14.75-3.02,14.75-5.61v-30.45h-28.4l.04,31.58h0Z"/>
  <path class="cls-10" d="M56.96,194.98c8.12,0,14.71-2.46,14.71-5.49s-6.59-5.49-14.71-5.49-14.71,2.46-14.71,5.49,6.58,5.49,14.71,5.49h0Z"/>
  <path class="cls-2" d="M56.96,195.39c-8.48,0-15.12-2.58-15.12-5.89s6.64-5.89,15.12-5.89,15.12,2.58,15.12,5.89-6.64,5.89-15.12,5.89ZM56.96,184.42c-7.74,0-14.3,2.34-14.3,5.08s6.56,5.08,14.3,5.08,14.3-2.34,14.3-5.08-6.56-5.08-14.3-5.08Z"/>
  <path class="cls-10" d="M57.25,193.29c7.02,0,12.71-1.79,12.71-3.99s-5.69-3.99-12.71-3.99-12.71,1.79-12.71,3.99,5.69,3.99,12.71,3.99Z"/>
  <path class="cls-2" d="M57.25,193.69c-6.36,0-13.12-1.53-13.12-4.4s6.76-4.4,13.12-4.4,13.12,1.53,13.12,4.4-6.76,4.4-13.12,4.4ZM57.25,185.71c-7.25,0-12.31,1.9-12.31,3.59s5.05,3.59,12.31,3.59,12.31-1.9,12.31-3.59-5.05-3.59-12.31-3.59Z"/>
  <path class="cls-1" d="M57.7,192.76s2.97-1.29,3.54-6.86c5.34.48,9.62,2.34,7.66,4.24-1.79,1.82-6.15,2.42-11.2,2.62ZM68.66,193.65v29.89s2.32-1.25,2.53-2.3c.12-.6.08-29.93.08-29.93,0,0-1.59,2.26-2.61,2.34h0Z"/>
  <path class="cls-6" d="M42.66,191.31l.04,30.7s1.22,2.38,6.19,3.51l-.12-26.78,1.3,19.44v-22.87s-5.05-1.33-7.42-3.99Z"/>
  <path class="cls-7" d="M163.27,160.75c1.44-2.47-1.63-6.89-6.85-9.88s-10.62-3.4-12.06-.93,1.63,6.89,6.85,9.88,10.62,3.4,12.07.93h0Z"/>
  <path class="cls-11" d="M159.44,162.76c-.24,0-.53,0-.82-.04-2.32-.16-5.05-1.09-7.62-2.54s-4.73-3.35-6.03-5.24c-1.39-2.02-1.71-3.83-.94-5.16s2.57-1.98,5.01-1.77c2.32.16,5.05,1.09,7.62,2.54,5.5,3.15,8.56,7.7,6.97,10.45-.69,1.13-2.16,1.77-4.2,1.77h0ZM148.19,148.72c-1.71,0-2.93.48-3.46,1.41-.61,1.05-.29,2.58.9,4.32,1.26,1.82,3.3,3.59,5.79,5s5.05,2.3,7.29,2.46c2.12.16,3.63-.32,4.24-1.37,1.3-2.26-1.75-6.49-6.68-9.32-2.49-1.41-5.05-2.3-7.29-2.46-.24-.04-.53-.04-.77-.04Z"/>
  <path class="cls-13" d="M133.48,215.31s4.69-14.52,4.69-22.02c-.04-3.47,20.9-28.03,24.73-35.9.33-.65-2.61-4.4-6.44-6.54-2.73-1.53-4.85-2.78-8.52-2.26,0,0-16.14,25.53-22.7,34.57-.65.89-4.03,4.72-5.38,8.11-2.77,6.9-1.92,27.59-.04,32.43.25.69,3.71-3.31,3.91-2.74,2.04,5.77,12.06-2.62,9.74-5.65Z"/>
  <g>
    <path class="cls-3" d="M119.96,224.19h-.12c-.16-.04-.33-.16-.37-.32-2.04-5.2-2.73-25.82.04-32.71,1.14-2.82,3.63-5.97,4.85-7.46.25-.32.45-.57.57-.73,6.48-8.91,22.49-34.29,22.65-34.53l.08-.16.2-.04c3.71-.52,5.99.73,8.6,2.22l.16.08c3.67,2.06,7.09,6.01,6.6,7.06-1.83,3.75-7.41,11.13-12.84,18.31-5.58,7.34-11.86,15.69-11.86,17.38,0,7.14-4.07,20.17-4.65,21.98.49.81.41,1.9-.29,3.11-1.38,2.5-4.93,5.16-7.58,4.96-.86-.08-1.96-.44-2.61-1.9-.33.24-.86.73-1.22,1.09-1.22,1.13-1.79,1.65-2.24,1.65h0ZM148.19,148.96c-1.38,2.18-16.38,25.85-22.61,34.41-.12.16-.33.44-.61.77-1.18,1.49-3.63,4.52-4.73,7.26-2.61,6.49-2,26.42-.16,31.87.41-.24,1.1-.93,1.59-1.33,1.3-1.21,1.71-1.53,2.08-1.41.16.04.29.16.33.32.37,1.05,1.06,1.61,2.04,1.69,2.28.2,5.58-2.34,6.8-4.56.33-.6.77-1.69.2-2.42l-.12-.16.08-.2c.04-.16,4.65-14.52,4.65-21.9-.04-1.86,4.52-7.99,12.02-17.87,5.38-7.1,10.92-14.48,12.75-18.15-.04-.69-2.61-4.03-6.23-6.05l-.16-.08c-2.57-1.45-4.6-2.58-7.9-2.18h0Z"/>
    <path class="cls-3" d="M128.47,187.28c1.18-.65,2.57-.89,3.95-.73.69.08,1.35.32,2,.6.33.16.61.36.9.56.24.24.53.44.77.69.98,1.01,1.55,2.3,1.83,3.63s.24,2.66.04,3.95c-.12-1.29-.29-2.58-.65-3.79-.41-1.21-.98-2.34-1.83-3.23-.82-.89-1.96-1.49-3.18-1.77-1.22-.32-2.53-.24-3.83.08ZM154.26,86.24l.33,7.99.24,7.95.2,7.95.24,7.95c-.45-2.62-.69-5.28-.9-7.95l-.24-3.99-.12-3.99-.04-7.99.29-7.91Z"/>
  </g>
  <path class="cls-5" d="M161.15,152.47s4.52-6.49,5.26-9.72,2.81-4.88,2.77-2.95,1.14,6.45,2,7.74-.16,6.33-2.57,7.38c-2.45,1.05-4.44.69-2.16-.04s-2.69,1.49-2.69,1.49l-2.61-3.91ZM222.59,147.87l7.38,4.52c-.29-.57-.65-3.71-.65-5.04,0-.6-11-7.38-11.12-7.87-.73-3.23-5.99-5.32-5.95-3.39s.86,6.45,2,7.5c2.36,2.26,3.46,4.84,5.91,5.89s5.66,7.34,5.66,7.34l-3.22-8.95h0Z"/>
  <path class="cls-11" d="M168.12,139.8c.16,1.45.2,2.9.16,4.36-.04,1.46-.16,2.91-.37,4.36-.2,1.45-.49,2.86-.98,4.27-.49,1.37-1.1,2.78-2.16,3.79.82-1.21,1.18-2.62,1.55-3.99l.45-2.1.33-2.14.53-4.27.49-4.28h0ZM171.5,149.73c0,.4-.12.81-.29,1.13-.16.36-.37.69-.65.97-.49.6-1.18,1.09-2,1.21.2-.36.45-.65.69-.93l.69-.85c.45-.44.9-1.01,1.55-1.53Z"/>
  <path class="cls-5" d="M156.54,128.87s7.46-13.83,22-6.61c-.08,4.07.2,6.25.2,6.25,0,0-8.96-10.97-22.21.36h0ZM226.91,122.54s-11.16-7.5-21.92-2.14c.24,1.88.42,3.76.53,5.65,0,0,4.48-8.19,21.39-3.51Z"/>
  <path class="cls-11" d="M217.09,140.81l4.52,4.92,2.28,2.42,2.36,2.34c-1.01-.52-1.95-1.16-2.81-1.9-.86-.73-1.68-1.51-2.45-2.34-.77-.85-1.47-1.69-2.16-2.62-.65-.89-1.26-1.82-1.75-2.82h0ZM213.18,136.94l1.59,2.54,1.63,2.5.85,1.21.45.6c.16.2.33.36.45.56l2.04,2.18c-.94-.4-1.79-1.05-2.53-1.73-.73-.73-1.39-1.49-1.96-2.34s-1.06-1.73-1.51-2.62l-1.02-2.9h0Z"/>
  <path class="cls-3" d="M114.5,250.49h-.57c-.25,0-.57-.04-1.02-.04-3.58-.12-12.06-.36-13.89-4.32-.57-1.21-.2-3.67.98-6.66.04-.08.37-.68,2.81-5.08l2.53-4.56.73.32c-.04.08-.45.85-2.57,4.6l-2.77,5c-1.06,2.7-1.47,5-.98,6.01,1.63,3.51,10.02,3.75,13.16,3.83.45,0,.82.04,1.02.04,9.21.6,18.09-14.2,19.07-18.31.04-.16.08-.32.08-.4,0-.2,0-.44-.04-.65l.81-.12c.03.27.05.54.04.81,0,.16-.04.36-.08.57-.98,4.2-9.9,18.96-19.31,18.96h0Z"/>
  <path class="cls-13" d="M129.08,208.09s5.26,1.05,5.87,4.27c.86,4.56-.12,11.25.53,13.39s-2.89,6.37-4.24,8.63-1.75,4.56-3.14,3.27c-1.43-1.29-.94-6.94.69-7.91,1.67-.97.73-5.12.04-6.49-1.14.4-1.51,1.45-3.91,2.94-.82.48-2.69,2.95-3.1,3.55-.45.65-1.71,4.11-1.83,5-.2,1.49-1.3,7.22-2.97,8.07-1.55.81-3.38.36-3.38-2.34s1.3-11.29,1.3-11.29c0,0,.49-.65,1.47-2.42-2.12.4-6.32,2.38-7.25,2.62-.69.16-2.61,3.75-3.59,4.56-.45.36-1.06,4.68-2.89,5.61-1.79.93-1.79.36-2.12-.12s.65-2.22.45-3.27c-.16-1.05-.08-6.37-.77-8.67s1.06-4.07,2.65-4.52c1.59-.4,6.97-2.98,7.21-3.07s1.39-1.37,2-1.65c.29-.12,1.26-.52,2.04-.97s3.59-6.25,6.15-6.86"/>
  <path class="cls-3" d="M129.08,208.05c1.1.11,2.18.41,3.18.89.49.24,1.02.52,1.47.89s.85.77,1.18,1.29c.16.25.29.52.37.81.08.28.12.57.16.85l.2,1.61.12,3.27-.04,6.41c.04.52.08,1.05.2,1.49l.04.2c.04.08.04.16.04.24.04.16.04.33,0,.48,0,.32-.08.6-.16.89-.33,1.13-.85,2.06-1.43,3.02l-1.79,2.7-.9,1.33c-.29.44-.53.89-.73,1.37l-.73,1.45c-.14.28-.32.53-.53.77-.12.12-.24.24-.45.36-.2.08-.49.12-.69.08s-.37-.16-.53-.24c-.16-.12-.24-.2-.37-.32-.24-.28-.41-.56-.49-.85-.2-.56-.33-1.13-.37-1.69-.08-1.13,0-2.26.24-3.35.12-.56.29-1.09.57-1.61.16-.28.33-.52.57-.77.08-.04.12-.12.2-.16l.2-.12c.08-.04.12-.12.2-.16.24-.28.37-.77.41-1.25s.04-1.01-.04-1.49c-.12-1.01-.37-2.06-.77-2.95l.61.24c-.61.2-1.18.89-1.83,1.45l-1.02.81-.53.36-.29.16-.12.08-.08.08c-.29.2-.57.52-.82.81l-.82.93-.77.97-.37.48c-.08.08-.08.16-.12.2l-.12.24c-.33.73-.65,1.49-.9,2.3l-.41,1.17c-.04.2-.12.4-.16.57l-.12.56c-.29,1.7-.65,3.35-1.18,4.96-.29.81-.57,1.61-1.1,2.42-.12.2-.29.4-.49.57-.12.08-.2.16-.33.24s-.2.12-.33.16c-.45.2-.94.32-1.47.28-.53,0-1.1-.2-1.51-.56s-.65-.85-.77-1.33c-.11-.45-.17-.91-.16-1.37l.04-1.29.57-5.04.69-5v-.12l.08-.12.37-.52.37-.6.69-1.21.53.73c-1.18.24-2.44.73-3.63,1.21l-1.79.73-.94.36c-.16.04-.33.12-.49.16-.08.04-.16.04-.24.08-.04,0-.12.04-.12.04h.04s-.16.12-.25.24-.2.24-.29.36c-.2.24-.37.52-.57.77l-1.1,1.61-.61.81c-.12.12-.2.28-.33.4-.08.12-.37.32-.24.24l-.29.81-.29.93c-.2.65-.41,1.25-.73,1.86-.29.6-.65,1.25-1.22,1.73-.16.12-.33.24-.49.32s-.29.16-.45.2c-.16.08-.33.12-.49.2-.16.04-.37.12-.65.12-.12,0-.29-.04-.41-.08-.16-.08-.29-.16-.37-.28-.16-.2-.2-.32-.29-.44-.12-.16-.16-.36-.16-.48v-.32l.12-.52c.16-.65.41-1.25.45-1.82v-.4c-.04-.2-.04-.36-.04-.52-.04-.32-.04-.65-.04-.97l-.16-3.87-.2-1.9c-.04-.32-.12-.6-.16-.93l-.12-.44-.12-.52c-.12-.73,0-1.48.33-2.14.33-.65.82-1.21,1.39-1.65.29-.2.61-.4.94-.52.16-.08.37-.12.53-.16s.29-.08.45-.16c.61-.2,1.18-.44,1.79-.73l3.59-1.57.9-.4.41-.16c.08-.04.2-.16.33-.28l.73-.69c.25-.26.54-.47.86-.65l.49-.2.45-.2.86-.4.2-.12.12-.04.04-.04c.08-.04.16-.2.24-.28.2-.24.37-.52.57-.77l2.32-3.15,1.43-1.41c.53-.4,1.1-.77,1.79-.89v.04c-.61.24-1.1.65-1.55,1.09-.45.48-.82.97-1.22,1.49l-2.12,3.23c-.17.28-.36.55-.57.81-.12.16-.2.28-.37.44-.04.04-.12.08-.16.12l-.12.08-.2.12c-.29.16-.61.28-.9.44l-.86.4c-.2.12-.45.32-.69.52l-.69.65c-.12.12-.24.24-.45.36,0,0-.08.04-.12.08l-.08.04-.08.04-.2.08-4.48,2.02-1.83.73c-.16.04-.33.12-.49.16l-.41.12c-.29.12-.53.24-.77.4-.94.69-1.55,1.82-1.35,2.95,0,.14.04.27.08.4l.12.48.2,1.01.2,1.98.2,3.91.04.97c0,.16.04.32.04.44.04.16.04.4.04.61-.04.77-.29,1.37-.45,1.98-.04.16-.08.28-.08.4-.04.12,0,.24-.04.12.09.13.18.26.25.4.04.04,0,0,.08.04.16,0,.45-.12.73-.24.14-.05.28-.12.41-.2l.33-.2c.41-.32.73-.89.98-1.41.24-.57.49-1.17.65-1.77l.29-.93c.12-.32.16-.6.37-1.01.04-.08.04-.12.16-.2l.08-.08.04-.04.16-.16c.08-.12.2-.24.29-.32.2-.24.37-.48.57-.77l1.1-1.61.57-.81c.12-.12.2-.28.33-.4s.25-.28.45-.4l.08-.04s.08-.04.12-.04l.12-.04c.08,0,.12-.04.2-.08.16-.04.29-.12.45-.16l.9-.36,1.83-.73,3.79-1.29,1.06-.24-.49.97-.69,1.25-.37.6-.41.65.12-.24-.69,4.96-.53,4.96c-.04.4-.04.81-.04,1.21s.04.77.12,1.09c.2.69.65,1.13,1.3,1.13.35,0,.69-.08,1.02-.2l.24-.12s.12-.08.16-.12c.12-.12.25-.24.33-.4.41-.6.73-1.37.98-2.14.53-1.53.9-3.19,1.14-4.8.04-.16.08-.44.12-.68l.16-.65.41-1.21c.29-.81.57-1.57.98-2.38.04-.08.12-.2.16-.32.08-.12.12-.24.2-.32l.41-.52.82-1.01.86-.97c.29-.32.57-.65.98-.93l.16-.12.12-.08.24-.16.49-.36.94-.77.94-.85c.33-.28.73-.6,1.22-.77l.41-.16.16.4c.24.52.41,1.09.57,1.61l.32,1.65c.08.57.08,1.13.04,1.69-.08.57-.2,1.21-.65,1.73-.13.13-.26.25-.41.36l-.16.08s-.08.08-.12.08c-.16.12-.29.32-.37.52-.24.4-.37.89-.49,1.41-.24,1-.33,2.04-.24,3.07.04.48.12,1.01.29,1.45.08.2.19.39.33.56.12.16.33.28.45.28h.12s.12-.08.16-.12l.41-.57.73-1.41.82-1.45.9-1.37,1.79-2.66c.53-.89,1.06-1.82,1.35-2.78.08-.22.12-.45.12-.68v-.32s0-.12-.04-.16l-.04-.16c-.16-.6-.16-1.13-.2-1.69-.08-2.18.08-4.32.08-6.45l-.12-3.19-.16-1.57c-.04-.24-.08-.52-.16-.73-.08-.24-.16-.44-.29-.65-.49-.85-1.3-1.49-2.2-2.02s-1.92-.97-2.93-1.33l-.45.16h0Z"/>
  <path class="cls-13" d="M115.43,218.7c-1.3.28-2.49,2.42-2.49,2.42l-5.58,2.82c-.69.4-3.59,4.4-4.36,5.12-.57.52-1.87,6.94-2.04,7.58"/>
  <path class="cls-3" d="M115.43,218.7c-.57.2-.98.65-1.3,1.13l-.45.73c-.12.24-.29.52-.37.77l-.04.12-.12.04-4.69,2.38-.57.28-.29.16s-.04.04-.08.04c-.04.04-.08.04-.08.08l-.86.93-1.63,2.02-.82,1.01-.41.52-.2.24-.12.12-.08.08c-.08.08-.16.32-.2.48-.08.2-.12.4-.2.6l-.33,1.25-1.14,5.08-.77-.2,1.18-5.08.37-1.25c.08-.2.12-.44.2-.65s.16-.4.33-.69c.04-.04.08-.08.08-.12l.04-.04.08-.12.61-.73.81-1.01,1.63-2.06.9-1.01s.08-.08.16-.12c.06-.05.13-.09.2-.12l.29-.16.57-.28,4.69-2.38-.16.16c.2-.28.37-.48.61-.73.2-.24.41-.44.65-.65l.73-.56c.16-.12.45-.24.77-.28h0ZM120.85,219.63c-.16.08-.29.24-.41.36l-.33.44-.57.97-1.06,1.98-2.08,3.95-.69-.44,2.4-3.75,1.22-1.85.65-.93.37-.44c.2-.08.33-.24.49-.28h0ZM109.32,246.09h-.82c.16-7.18,4.32-14.8,4.48-15.13l.73.4c-.08.04-4.28,7.74-4.4,14.72ZM101.99,245.12l3.79,1.09c1.26.32,2.57.6,3.83.77,1.3.2,2.57.24,3.87.24,1.3-.04,2.57-.24,3.91-.52-1.2.61-2.49,1.01-3.83,1.17-1.34.11-2.7.09-4.03-.08-1.33-.2-2.64-.52-3.91-.97-1.26-.44-2.49-1.01-3.63-1.7ZM125.37,229.07c-.73,1.33-1.26,2.74-1.59,4.15-.16.73-.29,1.45-.29,2.18-.04.73,0,1.45,0,2.22,0,1.53-.08,3.07-.45,4.56-.16.77-.41,1.49-.82,2.18s-.98,1.29-1.71,1.49c.65-.4,1.1-1.01,1.39-1.69s.45-1.37.57-2.1c.2-1.45.25-2.95.25-4.44l.04-2.3c.08-.77.25-1.53.45-2.26.41-1.45,1.14-2.82,2.16-3.99Z"/>
  <path class="cls-10" d="M109.12,238.02s-1.51,3.87-1.14,5c2.24.65,2.4.32,2.4.32l1.3-4.68c-1.02-.77-2.57-.65-2.57-.65Z"/>
  <path class="cls-3" d="M110.01,243.83c-.41,0-1.1-.12-2.16-.4l-.2-.04-.08-.2c-.41-1.21.9-4.6,1.14-5.28l.08-.24h.24c.08,0,1.71-.08,2.85.73l.2.16-.04.24c-.08.68-1.18,4.32-1.35,4.72l-.04.08c-.04.12-.2.24-.65.24ZM108.3,242.7c1.02.28,1.51.32,1.71.32l1.18-4.15c-.61-.36-1.43-.44-1.83-.44-.49,1.33-1.1,3.43-1.06,4.27Z"/>
  <path class="cls-10" d="M109.81,236.25c-.12.69,2.44.93,2.57.69.37-.69,1.1-2.58,1.22-3.43.08-.57-2-.65-2.65-.44-.16.08-1.1,3.02-1.14,3.19h0Z"/>
  <path class="cls-3" d="M111.89,237.42c-.69,0-1.55-.24-1.55-.24-.86-.28-.98-.73-.94-1.01,0-.04.9-3.27,1.43-3.47.61-.2,2.32-.2,2.93.28.19.14.29.37.25.6-.12.93-.9,2.82-1.26,3.55-.12.24-.45.28-.86.28ZM110.22,236.25c.25.24,1.43.4,1.83.36.37-.73.98-2.26,1.1-3.07-.33-.16-1.43-.24-1.96-.12-.2.48-.86,2.34-.98,2.82Z"/>
  <path class="cls-2" d="M102.15,235.68s1.14.32.73,1.45c-.41,1.17-1.75,2.7-2.2,4.6-.77-2.02.25-5.81.53-6.01s.94-.04.94-.04h0Z"/>
  <path class="cls-3" d="M100.76,243.15l-.45-1.21c-.77-2.06.12-6.09.69-6.49.41-.28,1.06-.16,1.26-.12.08,0,.69.2.98.77.12.24.24.65.04,1.25-.16.52-.49,1.05-.86,1.65-.49.85-1.1,1.86-1.35,2.9l-.33,1.25h0ZM101.5,236.09c-.2.4-.73,2.46-.65,4.15.27-.56.57-1.12.9-1.65.33-.57.65-1.09.77-1.49.08-.24.08-.44,0-.6-.12-.24-.41-.32-.45-.36-.2-.08-.49-.08-.57-.04Z"/>
  <path class="cls-2" d="M114.62,238.91s2.04-.85,2.61.44c.77,1.74-1.43,4.03-1.79,5.57-.69-.97-1.63-4.2-.82-6.01Z"/>
  <path class="cls-3" d="M115.64,245.85l-.53-.73c-.82-1.09-1.71-4.52-.86-6.41l.08-.16.16-.08c.9-.36,2.57-.65,3.14.65.61,1.29-.24,2.78-.98,4.07-.37.65-.69,1.25-.82,1.77l-.2.89h0ZM114.94,239.23c-.49,1.33-.08,3.47.45,4.72.16-.36.37-.73.57-1.09.65-1.21,1.34-2.42.94-3.35-.37-.77-1.55-.44-1.96-.28Z"/>
  <path class="cls-2" d="M127.57,239.31s1.26-.6,2.24-2.3c.53-.93.9-1.82.82-2.3-.04-.28-1.3-1.09-1.71-.4-.45.69-.49,3.07-1.35,5Z"/>
  <path class="cls-3" d="M126.72,240.16l.45-1.01c.49-1.05.69-2.3.9-3.27.16-.81.24-1.41.45-1.77.24-.36.65-.52,1.14-.44.57.12,1.26.57,1.35,1.01.08.57-.2,1.41-.86,2.54-1.02,1.77-2.36,2.42-2.4,2.46,0,0-1.02.48-1.02.48ZM129.37,234.43c-.12,0-.12.04-.16.08-.12.24-.24.85-.37,1.49l-.45,2.18c.33-.32.69-.77,1.02-1.33.69-1.25.77-1.77.77-1.98-.12-.16-.49-.44-.82-.44Z"/>
  <path class="cls-13" d="M131.73,219.18s-.94,3.07-2.65,3.87l2.65-3.87Z"/>
  <path class="cls-3" d="M131.73,219.18c-.2.77-.45,1.53-.82,2.26l-.65,1.05c-.27.36-.6.66-.98.89l-.37-.73c.61-.24,1.18-.81,1.63-1.45.46-.63.86-1.3,1.18-2.02Z"/>
  <path class="cls-14" d="M205.48,129.96s7.78,36.38,5.66,45.46c-2.32,9.8-1.26,36.79-1.26,36.79l19.15-.52c.61-.04-3.75-25.05-3.59-28.19.2-3.15.82-17.06-.29-24.81-.33-2.34,1.14-8.19,1.14-8.19,0,0,11.33,12.62,14.46,14.36l9.98,5.61s-2.16-19.16,9.21-19.93c-7.21-3.43-13.73-11.38-15.12-12.14s-5.13-6.29-9.13-10.2c-4.12-4.03-14.22-13.71-24.24-10.04-6.4,2.34-7.9,1.45-7.9,1.45l1.91,10.37h0Z"/>
  <path class="cls-14" d="M178.55,122.3s-3.34,39.33-1.59,49.78c1.71,10.45,1.83,39.21.57,40.26-1.3,1.09-16.34-1.9-16.34-1.9,0,0,5.13-18.92,5.13-22.87,0-5.08-1.83-7.66-3.75-16.7-.33-1.45-.82-6.94.73-10.77-3.06,6.98-16.58,23.4-16.58,23.4,0,0-9.29-11.82-16.26-11.17,4.93-7.3,12.59-17.55,12.47-20.05s1.14-4.52,3.14-5.65c1.59-.97,11.94-40.74,32.48-24.32Z"/>
  <path class="cls-14" d="M202.91,111.97s5.66,0,5.09,5.4c-.29,2.62-1.63,4.32-2.73,5.24-.41.36-1.02.08-1.02-.44-.04-.64-.2-1.49-.77-2.66-.32-.73-.57-7.54-.57-7.54Z"/>
  <path class="cls-14" d="M208.25,115.72l3.18,5.73c.53,3.83-1.26,11.7-1.26,11.7l-6.32-10.81s4.24-2.26,4.4-6.61h0Z"/>
  <path class="cls-7" d="M182.87,36.02s26.44,4.48,36.75,17.87c7.46,9.64,11.08,19.44,11.37,17.26.82-6.7-6.4-18.68-6.4-18.68,0,0-3.91-12.62-25.26-19.93-21.35-7.3-21.27,1.9-16.46,3.47Z"/>
  <path class="cls-16" d="M139.76,74.02c-.41,10-.2,31.74,1.18,39.97,3.79,6.17,8.35,8.55,13.85,12.3,3.1,2.1-1.63-44.65,1.75-56.83,4.44-16.05,16.54-25.25,16.54-25.25-5.99,7.66-4.16,9.96-4.16,9.96,9.29-10.61,24.2-18.67,30.76-20.45,2.2-.56,7.7,1.9,9.94,1.49.57-.52-1.55-2.78-1.67-3.27-.69-2.26-9.7-6.05-17.68-5.57-20.41,1.17-49.46,23.03-50.52,47.64h0Z"/>
  <path class="cls-16" d="M155,126.78c-.16,0-.29-.04-.41-.12l-2.4-1.61c-4.44-2.94-8.31-5.49-11.57-10.85l-.04-.04v-.08c-1.43-8.47-1.59-30.78-1.18-40.05.49-11.42,6.93-23.11,18.13-32.87,10.02-8.75,22.53-14.52,32.68-15.13,8.15-.44,17.36,3.39,18.13,5.89.04.12.33.48.53.81.82,1.13,1.67,2.3,1.06,2.9l-.08.08-.12.04c-1.14.2-2.97-.24-4.93-.77-1.96-.48-3.95-1.01-4.97-.73-6.8,1.81-21.64,10.08-30.56,20.29l-.33.36-.29-.4c-.16-.24-1.39-2.1,2.08-7.5-3.79,3.71-10.63,11.58-13.69,22.67-1.75,6.33-1.26,22.55-.9,35.62.45,15.08.49,20.85-.73,21.5h-.41Z"/>
  <path class="cls-6" d="M231.93,62.7l-2.87,1.06.28.76,2.87-1.06-.28-.76ZM230.35,58.26l-2.76,1.3.35.73,2.76-1.3-.35-.73ZM227.6,53.11l-2.62,1.55.42.69,2.62-1.55-.42-.69ZM221.14,50.09l-1.75,1.18.46.67,1.75-1.18-.46-.67ZM225.9,56.39l-1.75,1.18.46.67,1.75-1.18-.46-.67ZM217.04,45.97l-1.38,1.59.62.53,1.38-1.59-.62-.53ZM211.41,41.52l-1.38,1.59.62.53,1.38-1.59-.62-.53h0ZM206.16,38.47l-1.15,1.76.68.44,1.15-1.76-.68-.44ZM200.45,35.04l-1.15,1.76.68.44,1.15-1.76-.68-.44Z"/>
  <path class="cls-13" d="M215.3,14.04s-2.08,1.29-7.54,11.29c-2.2,4.03-3.95,10.81-3.95,10.81,2.97.93,6.11,2.7,6.11,2.7l5.38-24.81Z"/>
  <path class="cls-13" d="M215.3,14.04s-7.78,13.35-9.01,22.99c10.27,4.68,17.85,14.64,17.85,14.64,0,0,5.62-23.48-8.84-37.63h0Z"/>
  <g>
    <path class="cls-3" d="M212.69,21.62c.2.69.29,1.41.37,2.14s.08,1.45.08,2.18l-.2,2.18c-.12.72-.28,1.44-.49,2.14l-.61-.28c.21-.38.49-.72.82-1.01.17-.17.38-.29.61-.36.12-.04.29-.08.45-.08s.37.08.49.2c.29.24.37.52.41.77s.04.48,0,.69c-.04.42-.12.84-.24,1.25-.41,1.57-1.1,3.07-1.83,4.48l-.65-.4c.41-.44.81-.89,1.43-1.25.16-.08.37-.16.57-.16.24,0,.47.08.65.24.33.28.45.6.53.93.16.6.24,1.21.29,1.78l.12,1.78-.41-.16.98-.93c.37-.28.73-.52,1.22-.69.45-.12.98,0,1.35.24s.65.6.94.97c-.29-.32-.61-.6-1.02-.81-.37-.2-.82-.28-1.18-.12-.38.17-.72.4-1.02.69-.33.28-.61.6-.9.93l-.37.4-.08-.56-.2-1.73c-.08-.56-.16-1.13-.37-1.65-.08-.24-.2-.48-.33-.6q-.08-.04-.16-.04c-.08,0-.16.04-.29.08-.41.24-.82.69-1.18,1.09l-1.96,2.26,1.35-2.7.98-2.14.77-2.18.2-1.09v-.52c0-.16-.08-.28-.12-.28,0,0-.08-.04-.2,0s-.29.12-.41.24c-.29.2-.49.52-.69.81l-1.47,2.22.85-2.5c.24-.69.45-1.37.57-2.06.16-.69.28-1.39.37-2.1.08-.71.12-1.42.12-2.14,0-.7-.04-1.4-.12-2.1h0ZM221.58,28.6c.49,1.37.82,2.78,1.06,4.2.25,1.43.37,2.87.37,4.32,0,1.45-.12,2.9-.45,4.32s-.82,2.82-1.63,4.03c.49-1.37.77-2.74.98-4.15l.12-1.05.08-1.05.04-.52v-.52c0-.36.04-.69,0-1.05v-1.05l-.04-1.05-.12-2.14-.41-4.28h0Z"/>
    <path class="cls-3" d="M224.79,32.31c-1.59,0-2.98-.6-3.54-1.53-.23-.37-.11-.85.26-1.07,0,0,.02-.01.03-.02.41-.24.9-.08,1.1.28.16.32.98.73,2.16.73,1.43,0,2.2-.6,2.2-.85s-.82-.85-2.2-.81c-.16,0-.37,0-.53.04-.45.04-.85-.24-.9-.69s.24-.85.69-.89c.24-.04.45-.04.69-.04h.08c2.16,0,3.75,1.05,3.79,2.42,0,1.41-1.63,2.46-3.79,2.5,0-.08-.04-.08-.04-.08h0ZM222.39,26.74c-1.14,0-2.16-.4-2.61-1.05-.24-.36-.16-.85.2-1.13.37-.24.86-.16,1.14.2.12.16.73.44,1.67.36,1.02-.12,1.55-.57,1.55-.73-.04-.12-.65-.44-1.67-.32-.14,0-.28.03-.41.08-.45.08-.86-.16-.98-.6-.09-.43.18-.86.61-.97.2-.04.37-.08.57-.08,1.83-.2,3.34.57,3.46,1.77.08.65-.29,1.29-.94,1.77-.53.36-1.26.65-2.04.73-.2-.04-.41-.04-.57-.04h0Z"/>
  </g>
  <path class="cls-9" d="M202.18,30.53s-6.44-5.12-15.93-2.7c-5.46,1.41-30.8,7.99-42.05,33.12-5.5,12.26-2.4,24.69-1.35,50.1,0-18.76-.98-30.82,5.42-47.48-4.44,11.7-2.2,38.44-.65,41.14.98,1.69-.77-23.8,4.52-39.08.37-.93,12.84-30.41,50.04-35.09Z"/>
  <path class="cls-13" d="M159.52,14.84s10.19,6.17,13.16,13.96c1.96,5.12,2.4,7.83,2.24,8.63-.16.77-3.75,1.78-3.75,1.78l-11.65-24.36Z"/>
  <path class="cls-13" d="M159.03,14.56s-8.39,22.31-3.3,37.67c9.17-11.25,17.93-13.96,17.93-13.96,0,0-4.44-18.84-14.63-23.72h0Z"/>
  <path class="cls-3" d="M163.15,25.82c.04.57.16,1.13.29,1.69.13.56.29,1.11.49,1.65.36,1.08.86,2.11,1.47,3.07l1.35,2.18-1.87-1.78c-.12-.12-.24-.2-.33-.28-.12-.08-.24-.12-.24-.08h.04v.08c0,.08,0,.24.04.36.12.56.41,1.21.73,1.78l1.06,1.69c.37.56.78,1.1,1.22,1.61l1.83,2.34-2.36-1.78-1.1-.77-.29-.16c-.08-.04-.2-.08-.29-.12-.16-.04-.37-.08-.45-.04s-.16.16-.24.32c-.05.2-.09.4-.12.6-.04.44,0,.89.04,1.33l.04.56-.41-.32-.82-.6c-.29-.16-.57-.32-.9-.36s-.61.04-.9.28c-.24.2-.45.48-.65.81.12-.32.29-.65.53-.89.24-.28.61-.44,1.02-.44s.73.16,1.06.32l.94.52-.37.24c-.08-.44-.16-.93-.12-1.41,0-.24.04-.48.08-.77.08-.24.24-.56.57-.73s.65-.08.9-.04l.37.12.33.16c.42.23.83.49,1.22.77l-.53.56c-.86-1.09-1.71-2.18-2.36-3.43-.33-.65-.65-1.25-.77-2.02-.04-.2-.04-.4,0-.65.04-.14.1-.27.16-.4.08-.16.33-.24.49-.24.33,0,.53.12.69.24s.33.24.45.4l-.53.4c-.29-.52-.53-1.05-.73-1.61-.2-.52-.37-1.09-.53-1.65s-.24-1.13-.33-1.74c-.16-.65-.2-1.25-.16-1.82h0ZM152.51,43.6c-1.18,0-2.12-.48-2.45-1.33-.29-.69-.08-1.49.53-2.22.49-.6,1.26-1.09,2.16-1.45.21-.09.43-.15.65-.2.45-.12.9.16.98.56.12.44-.16.89-.57.97-.17.04-.33.09-.49.16-.61.24-1.14.6-1.47.97-.24.28-.29.48-.24.6.08.24,1.02.52,2.36,0,1.1-.44,1.71-1.13,1.75-1.45.08-.44.49-.77.94-.69s.73.48.69.93c-.16,1.09-1.26,2.14-2.77,2.74-.77.28-1.47.4-2.08.4h0ZM153.16,37.43c-1.22,0-2.16-.52-2.4-1.37-.16-.65.04-1.33.65-1.9.49-.44,1.14-.85,1.91-1.05l.57-.12c.45-.08.86.24.94.69s-.24.85-.69.93c-.12.04-.24.04-.41.08-.98.28-1.43.81-1.43.97.08.12.73.32,1.71.08.9-.24,1.38-.73,1.43-.93.12-.44.53-.69.98-.6.43.1.7.53.61.97-.24.93-1.22,1.73-2.57,2.1-.45.08-.86.16-1.3.16h0ZM159.64,17.38c-.12,2.1-.45,4.16-.77,6.21l-1.06,6.17c-.16-1.05-.16-2.1-.12-3.15s.2-2.1.33-3.15c.16-1.05.37-2.06.65-3.11l.98-2.99Z"/>
  <path class="cls-14" d="M151.86,178.81l-2.08,1.61c-.69.56-.81,1.33-1.63,2.42-1.18,1.53-.53,3.79-5.18,2.58l.77-1.09s-5.42-10.49-13.53-8.55l-.41.57s-4.52-1.13-2.28-4.72c2.24-3.63,2.69-2.74,2.89-3.35s.24-3.51,2.69-4.2c6.56-1.94,22.45,12.34,18.74,14.72h0Z"/>
  <path class="cls-15" d="M180.01,113.79l-2.16-.69c-1.02.36-2.24,2.34-2.32,3.55-.08,2.3,3.22,5.69,3.22,5.69,0,0,1.96-2.62,1.26-8.55h0Z"/>
  <path class="cls-15" d="M173.04,120.97l2.45-4.72s.65,4.4,3.01,6.05l-5.74,10.85s-.61-9.32.29-12.18h0Z"/>
  <path class="cls-8" d="M210.12,134.32l-5.01-9.04,1.71,8.15,3.3.89h0ZM173.41,133.15l4.4-8.59-.49,6.61-3.91,1.98ZM129.08,174.29s5.54-2.99,8.92-.52c-.12-2.62-.73-2.42-.73-2.42,0,0,3.95.77,7.17,4.03-1.02-4.52-9.86-11.58-11.25-9.96-1.38,1.65-1.55,3.67-1.55,3.67,0,0-4.64,1.82-2.57,5.2ZM141.67,176.39s5.66,5.49,3.99,8.35c1.71-2.1,2.36-1.57,1.67-2.86-.65-1.29-3.75-5.2-5.66-5.49ZM137.88,164.21s4.28-7.58,5.13-9.76.94-5.28,2.65-5.97,5.58-11.09,6.72-13.15,7.95-18.03,18.62-15.33l1.14.65s-.77,4.72-.73,5.49c0,.77-4.07-6.37-8.56,1.21-4.48,7.58-14.18,21.82-13.73,23.19s7.66,10.49,3.26,8.19c-4.44-4.2-7.86-4.64-7.74-4.07s6.11,4.88,5.66,6.45c-.45,1.53-7.58-3.95-7.29-2.22s-3.59,5.89-3.59,5.89l-1.55-.56h0ZM168.56,141.7s-3.06,11.74-3.75,10.57c-.53-3.79.41-9.36,0-10.57s-1.83,13.23-1.91,14.68c-.16,2.38.98,2.38.98,2.38,0,0,6.15-8.91,6.15-9.68s3.34-10.45,1.02-10.93c-1.63-.32-2.49,3.55-2.49,3.55h0ZM164.12,171.35s1.83,4.76,5.91,7.22,3.46,6.94,3.38,8.19c-.04,1.25-6.44,6.37-6.24,4.6.16-1.77-.77-10.25-2.36-13.84-1.55-3.59-.69-6.17-.69-6.17ZM213.18,194.26s6.07-5.61,7.99-6.21,3.54-7.14,3.54-9.48-.08-7.62-1.3-6.49c-1.18,1.13-7.7,7.38-8.92,6.33s-2.85,2.99-2.98,4.68c-.16,1.69,1.67,11.17,1.67,11.17h0ZM215.95,134.32c.04-1.7,12.84,11.01,14.02,12.14s7.13,2.82,8.11,1.98.33,3.99,0,4.64,1.26,2.26,1.26,2.26c0,0,8.8-2.74,5.87,0s-3.38,9.72-4.4,8.55-10.8-9.52-14.59-14.72c-.98.6-1.18,6.94-2.65,4.48-1.47-2.5-6.23-2.62-5.5-4.48s3.54,2.26,4.56,1.29-6.76-10.53-6.68-16.13ZM212.85,121.57s10.59-1.41,13.45,1.21c-6.03-4.92-10.51-4.6-14.79-3.27l1.34,2.06Z"/>
  <path class="cls-14" d="M254.82,143.8l1.87,2.26c.65.73,1.51.85,2.73,1.74,1.75,1.25,4.24.48,3.06,5.61l-1.22-.85s-7.13,4.24-9.17,15.09l.65.4s-1.14,5-5.26,2.66-3.14-2.86-3.83-3.07-3.91-.16-4.81-2.82c-2.32-7.18,13.24-24.97,15.97-21.01h0Z"/>
  <path class="cls-8" d="M259.35,151.95c2.85-2.5-8.64-.93-12.71,8.35-.57-4.48,2.73-8.07,1.83-9.04s-7.66,7.62-7.66,12.62c0,.93.53,2.02,2.24,2.22,1.71.24,4.73,5.37,6.4,3.59,1.63-1.77,1.87-1.94,1.1-3.59-.73-1.65,3.59-9.6,8.8-14.16Z"/>
  <path class="cls-2" d="M178.26,39.85l-6.56,5.85-.82.77-.77.77-1.55,1.57-2.97,3.27c.69-1.29,1.55-2.54,2.49-3.67.94-1.13,1.95-2.21,3.01-3.23l3.42-2.86c1.18-.97,2.45-1.78,3.75-2.46h0Z"/>
  <path class="cls-6" d="M97.75,156.74c-1.35,0-2.65-.36-3.79-1.09l-6.97-4.44c-1.96-1.25-3.18-3.39-3.26-5.69l-.2-7.18c-.08-2.7,1.43-5.2,3.87-6.45l5.7-2.9c2.2-1.13,4.89-1.01,6.97.32l6.97,4.36c2,1.25,3.22,3.39,3.3,5.73l.2,7.18c.08,2.66-1.43,5.16-3.79,6.41l-5.7,2.95c-1.06.52-2.16.81-3.3.81h0ZM96.28,129.88c-.86,0-1.71.2-2.49.56l-5.7,2.9c-1.87.93-3.01,2.86-2.97,4.96l.2,7.18c.04,1.77.98,3.43,2.53,4.4l6.97,4.44c1.63,1.05,3.71,1.13,5.46.24l5.7-2.94c1.83-.93,2.97-2.86,2.93-4.92l-.2-7.18c-.04-1.82-1.02-3.43-2.53-4.4l-7.01-4.44c-.86-.56-1.87-.81-2.89-.81h0ZM114.37,181.71c-1.35,0-2.65-.36-3.79-1.09l-6.97-4.44c-1.96-1.25-3.18-3.39-3.26-5.69l-.2-7.18c-.08-2.7,1.43-5.2,3.87-6.45l5.71-2.9c2.2-1.13,4.89-1.01,6.97.32l6.97,4.36c2,1.25,3.22,3.39,3.3,5.73l.2,7.18c.08,2.66-1.43,5.16-3.79,6.41l-5.71,2.95c-1.06.52-2.2.81-3.3.81ZM112.9,154.81c-.86,0-1.71.2-2.49.57l-5.7,2.9c-1.87.93-3.01,2.86-2.97,4.96l.2,7.18c.04,1.77.98,3.43,2.53,4.4l6.97,4.44c1.63,1.05,3.71,1.13,5.46.24l5.7-2.95c1.83-.93,2.97-2.86,2.93-4.92l-.2-7.18c-.04-1.82-1.02-3.43-2.53-4.4l-6.97-4.36c-.94-.6-1.92-.89-2.93-.89h0ZM130.71,158.56c-1.35,0-2.65-.36-3.79-1.09l-6.97-4.44c-1.96-1.25-3.18-3.39-3.26-5.69l-.2-7.18c-.08-2.7,1.43-5.2,3.87-6.45l5.71-2.9c2.2-1.13,4.89-1.01,6.97.32l6.97,4.36c1.99,1.24,3.22,3.39,3.3,5.73l.2,7.18c.08,2.66-1.43,5.16-3.79,6.41l-5.7,2.95c-1.06.52-2.16.81-3.3.81ZM129.24,131.7c-.86,0-1.71.2-2.49.56l-5.7,2.9c-1.87.93-3.01,2.86-2.97,4.96l.2,7.18c.04,1.77.98,3.43,2.53,4.4l6.97,4.44c1.63,1.05,3.71,1.13,5.46.24l5.7-2.94c1.83-.93,2.98-2.86,2.93-4.92l-.2-7.18c-.04-1.82-1.02-3.43-2.53-4.4l-6.97-4.36c-.9-.65-1.91-.89-2.93-.89h0ZM153.69,197.28c-1.35,0-2.65-.36-3.79-1.09l-6.97-4.44c-1.95-1.25-3.17-3.37-3.26-5.69l-.2-7.18c-.08-2.7,1.43-5.2,3.87-6.41l5.7-2.9c2.2-1.13,4.89-1.01,6.97.32l6.97,4.36c2,1.25,3.22,3.39,3.3,5.73l.2,7.18c.08,2.66-1.43,5.16-3.79,6.41l-5.71,2.95c-1.06.48-2.16.77-3.3.77h0ZM152.23,170.38c-.86,0-1.71.2-2.49.57l-5.71,2.9c-1.87.93-3.01,2.86-2.97,4.96l.2,7.18c.04,1.77.98,3.43,2.53,4.4l6.97,4.44c1.63,1.05,3.71,1.13,5.46.24l5.71-2.94c1.83-.93,2.97-2.86,2.93-4.92l-.2-7.18c-.04-1.82-1.02-3.43-2.53-4.4l-6.97-4.36c-.94-.6-1.91-.89-2.93-.89h0ZM172.43,236.13c-1.34,0-2.65-.36-3.79-1.09l-6.97-4.44c-1.96-1.25-3.18-3.39-3.26-5.69l-.2-7.18c-.08-2.7,1.43-5.2,3.87-6.41l5.7-2.9c2.2-1.13,4.89-1.01,6.97.32l6.97,4.36c2,1.25,3.22,3.39,3.3,5.73l.2,7.18c.08,2.66-1.43,5.16-3.79,6.41l-5.7,2.94c-1.06.48-2.16.77-3.3.77h0ZM170.97,209.22c-.86,0-1.71.2-2.49.57l-5.7,2.9c-1.88.93-3.02,2.86-2.98,4.96l.2,7.18c.04,1.77.98,3.43,2.53,4.4l6.97,4.44c1.63,1.05,3.71,1.13,5.46.24l5.71-2.95c1.83-.93,2.97-2.86,2.93-4.92l-.2-7.18c-.04-1.82-1.02-3.43-2.53-4.4l-6.97-4.36c-.94-.6-1.91-.89-2.93-.89h0ZM202.38,237.5c-1.35,0-2.65-.36-3.79-1.09l-6.97-4.44c-1.96-1.25-3.18-3.39-3.26-5.69l-.2-7.18c-.08-2.7,1.43-5.2,3.87-6.41l5.71-2.9c2.2-1.13,4.89-1.01,6.97.32l6.97,4.36c2,1.25,3.22,3.39,3.3,5.73l.2,7.18c.08,2.66-1.43,5.16-3.79,6.41l-5.7,2.94c-1.06.48-2.2.77-3.3.77h0ZM200.87,210.63c-.86,0-1.71.2-2.49.57l-5.7,2.9c-1.87.93-3.01,2.86-2.97,4.96l.2,7.18c.04,1.77.98,3.43,2.53,4.4l6.97,4.44c1.63,1.05,3.71,1.13,5.46.24l5.7-2.95c1.83-.93,2.98-2.86,2.93-4.92l-.2-7.18c-.04-1.82-1.02-3.43-2.53-4.4l-6.97-4.36c-.9-.65-1.91-.89-2.93-.89h0Z"/>
  <path class="cls-12" d="M95.51,229.71c50.2,15.04,83.77,15.41,129.86,15.25,13.53-.04,24.32-11.09,23.96-24.48l-2-68.45c-.37-12.95-10.8-23.43-23.88-24-48.45-2.18-93.1-7.86-131.65-16.34-9.45-2.06-18.33,5.24-18.09,14.84l2.24,77.89c.37,11.66,8.23,21.9,19.56,25.29Z"/>
  <path class="cls-2" d="M214.2,245.89c-42.99,0-80.47-3.31-119.34-16.66-11.21-3.83-18.95-14.28-19.31-25.98l-2.2-76.72c-.12-4.72,1.87-9.12,5.54-12.14,3.67-2.99,8.39-4.11,13-3.11,39.36,8.63,83.49,14.12,131.16,16.29,6.56.28,12.67,3.03,17.28,7.62,4.6,4.64,7.25,10.73,7.42,17.22l2,69.62c.19,6.2-2.15,12.21-6.48,16.66-4.36,4.52-10.23,7.02-16.54,7.1l-12.51.08h0ZM88.58,111.73c-3.3,0-6.52,1.13-9.17,3.27-3.46,2.82-5.38,7.02-5.26,11.5l2.2,76.72c.33,11.34,7.86,21.5,18.74,25.25,42.5,14.6,83.37,17.14,131.61,16.54,6.07-.08,11.78-2.5,15.97-6.86s6.44-10.04,6.27-16.05l-2-69.62c-.37-12.91-10.88-23.48-23.92-24.04-47.71-2.18-91.88-7.66-131.28-16.3-1.06-.28-2.12-.4-3.18-.4h0Z"/>
  <path class="cls-9" d="M193.38,276.5c-.12,0-.2-.04-.29-.12l-12.96-13.23c-.08-.08-.12-.16-.12-.28v-18.15c0-.16.08-.28.24-.36.04-.04.12-.04.16-.04.08,0,.16.04.24.08l12.96,9.76c.08.08.16.2.16.32v21.62c0,.16-.08.32-.24.36-.04.04-.08.04-.16.04Z"/>
  <path class="cls-2" d="M180.42,244.72l12.96,9.76v21.62l-12.96-13.23v-18.15h0ZM180.42,243.91c-.12,0-.24.04-.37.08-.29.12-.45.4-.45.73v18.15c0,.2.08.4.24.57l12.96,13.23c.15.15.36.24.57.24.12,0,.2,0,.33-.04.33-.12.49-.4.49-.77v-21.62c0-.24-.12-.48-.33-.65l-12.96-9.76c-.12-.08-.33-.16-.49-.16Z"/>
  <path class="cls-6" d="M193.34,276.42c-.08,0-.16-.04-.24-.08-.08-.08-.16-.2-.16-.32v-21.18c0-.2.12-.36.33-.4l21.68-4.32c.08,0,.2.04.24.08.08.08.16.2.16.32v19.85c0,.2-.12.36-.29.4l-21.6,5.65h-.12Z"/>
  <path class="cls-2" d="M214.97,250.57v19.84l-21.6,5.65v-21.18l21.6-4.32h0ZM214.97,249.76h-.16l-21.6,4.32c-.37.08-.65.4-.65.81v21.18c0,.25.13.49.33.64.14.11.31.16.49.16.08,0,.12,0,.2-.04l21.6-5.65c.37-.08.61-.4.61-.77v-19.85c0-.24-.12-.48-.29-.6-.16-.16-.37-.2-.53-.2Z"/>
  <path class="cls-10" d="M193.34,254.84c-.08,0-.16-.04-.24-.08l-12.92-9.68c-.12-.08-.2-.28-.16-.4.04-.16.16-.28.32-.28l21.84-3.43c.08,0,.16.04.24.08l12.79,8.83c.12.08.2.24.16.4-.04.16-.17.29-.33.32l-21.6,4.32c-.04-.08-.08-.08-.12-.08h0Z"/>
  <g>
    <path class="cls-2" d="M202.18,241.29l12.79,8.83-21.6,4.32-12.92-9.68,21.72-3.47ZM202.18,240.48h-.12l-21.76,3.43c-.33.04-.57.28-.65.6s.04.65.29.85l12.92,9.68c.14.11.31.16.49.16h.16l21.6-4.32c.32-.08.57-.32.65-.65.08-.32-.08-.65-.33-.81l-12.79-8.83c-.14-.08-.29-.12-.45-.12h0Z"/>
    <path class="cls-2" d="M187.59,270.98c-.21.02-.39-.14-.41-.35,0-.02,0-.04,0-.05v-20.29l22.78-4.27c.24-.04.45.12.49.32s-.12.44-.33.48l-22.12,4.15v19.6c0,.24-.2.4-.41.4h0ZM182.91,266.22c-.24,0-.41-.2-.41-.4l.33-18.64,23.35-3.95c.22-.03.43.11.49.32.04.2-.12.44-.33.48l-22.65,3.87-.33,17.95c-.04.22-.23.37-.45.36h0Z"/>
    <path class="cls-2" d="M201.93,274.4c-.21.02-.39-.14-.41-.35,0-.02,0-.03,0-.05v-20.77l-13.73-9.64c-.2-.12-.24-.36-.08-.57.12-.2.37-.24.57-.08l14.1,9.88v21.18c-.04.24-.24.4-.45.4h0ZM209.59,272.19c-.21.02-.39-.14-.41-.35,0-.02,0-.04,0-.05v-19.97l-14.02-9.44c-.2-.12-.24-.36-.12-.57s.37-.24.57-.12l14.38,9.72v20.37c0,.24-.16.4-.41.4h0Z"/>
    <path class="cls-2" d="M193.13,263.35l-13.4-11.82.53-.6,13.12,11.54,21.88-5.36.2.81-22.33,5.45h0ZM193.13,270.33l-13.45-12.79.57-.57,13.12,12.46,21.88-5.81.2.77-22.33,5.93h0Z"/>
  </g>
  <path class="cls-9" d="M193.42,263.39l8.11-2.02v5.85l-8.19,2.14.08-5.97h0Z"/>
  <path class="cls-6" d="M188,257.91l4.56,3.83v-6.82l-4.56-3.43v6.41Z"/>
</svg>